<svg xmlns="http://www.w3.org/2000/svg" width="101" height="93">
    <path fill="#FFF" fill-rule="evenodd" d="M100.97 64.407a11.486 11.486 0 0 0-6.826 3.317 11.596 11.596 0 0 0-3.303 6.85l-.029.03-.034-.03a11.527 11.527 0 0 0-3.299-6.85 11.498 11.498 0 0 0-6.826-3.317l-.029-.03.042-.045a11.469 11.469 0 0 0 6.801-3.314 11.54 11.54 0 0 0 3.298-6.829l.044-.038.03.029a11.599 11.599 0 0 0 3.303 6.848 11.487 11.487 0 0 0 6.826 3.317l.031.032-.029.03zm-45.241-4.022v12.257h2.509v19.374H46.177V72.642h2.511V60.385C33.673 58.634 22.014 45.843 22.014 30.3c0-16.739 13.52-30.308 30.195-30.308 16.68 0 30.195 13.569 30.195 30.308 0 15.543-11.658 28.334-26.675 30.085zm11.356-44.474L37.784 45.322c.895.975 2.644 2.75 4.467 3.945l28.741-28.858c-1.251-1.921-2.804-3.503-3.907-4.498zm6.331 9.782L47.585 51.626c2.541.563 4.448.783 5.797.84.625-.023 1.25-.044 1.867-.116l18.967-19.041c.278-3.163-.326-5.991-.8-7.616zm-51.185 20.31l-.021.025a9.754 9.754 0 0 0-5.78 2.81 9.787 9.787 0 0 0-2.797 5.798l-.024.026-.027-.026a9.81 9.81 0 0 0-2.795-5.798 9.77 9.77 0 0 0-5.778-2.81l-.026-.025.034-.036a9.728 9.728 0 0 0 5.757-2.806 9.792 9.792 0 0 0 2.795-5.783l.038-.032.023.024a9.819 9.819 0 0 0 2.798 5.802 9.726 9.726 0 0 0 5.78 2.805l.023.026zM8.454 30.236a7.255 7.255 0 0 0-2.065 4.283l-.016.019-.024-.021A7.227 7.227 0 0 0 .02 28.159l-.019-.016.025-.024a7.194 7.194 0 0 0 4.254-2.073 7.228 7.228 0 0 0 2.063-4.27l.03-.025.016.019a7.246 7.246 0 0 0 2.065 4.285 7.212 7.212 0 0 0 4.269 2.072l.015.017-.015.018a7.203 7.203 0 0 0-4.269 2.074z"/>
</svg>
