<svg height="26.972168" viewBox="0 0 38.34845 26.972168" width="38.34845" xmlns="http://www.w3.org/2000/svg"><path d="m38.791592 6.761609s-.374963-2.6426342-1.52499-3.8067227c-1.457667-1.5271204-3.092589-1.534364-3.842089-1.6238437-5.366226-.38817151-13.415991-.38817151-13.415991-.38817151h-.01704s-8.049339 0-13.4159914.38817151c-.7495031.0894797-2.3835731.0967233-3.8420924 1.6238437-1.1500274 1.1640885-1.5241378 3.8067227-1.5241378 3.8067227s-.38348448 3.1032416-.38348448 6.206483v2.909795c0 3.102816.38348448 6.206057.38348448 6.206057s.3741104 2.642635 1.5241378 3.806723c1.4585193 1.527547 3.3746634 1.478546 4.2281294 1.638757 3.0683024.294431 13.0384724.385615 13.0384724.385615s8.058287-.01236 13.424513-.400102c.7495-.08948 2.384422-.09672 3.842089-1.62427 1.150027-1.164088 1.52499-3.806723 1.52499-3.806723s.382632-3.103241.382632-6.206057v-2.909795c0-3.1032414-.382632-6.206483-.382632-6.206483zm-22.75043 12.641353-.0017-10.7746358 10.361751 5.4058528z" fill="#fff" fill-rule="evenodd" transform="translate(-.825776 -.942871)"/></svg>