<svg height="32" width="32" xmlns="http://www.w3.org/2000/svg"><path d="m2 26c0 1.10464.8953636 2 2.0000909 2h23.9998181c1.104727 0 2.000091-.89536 2.000091-2v-16h-28zm15.000046-11.49984c0-.27648.223681-.500159.499863-.500159h7c.2765 0 .500182.223679.500182.500159v7.999679c0 .27648-.223682.500159-.500182.500159h-7c-.276182 0-.499863-.223679-.499863-.500159zm-9.4999551-.500159h7.0000001c.276182 0 .499863.223679.499863.500159 0 .27616-.223681.49984-.499863.49984h-7.0000001c-.2765 0-.5001818-.22368-.5001818-.49984 0-.27648.2236818-.500159.5001818-.500159zm0 3.999999h7.0000001c.276182 0 .499863.224001.499863.50016 0 .27616-.223681.49984-.499863.49984h-7.0000001c-.2765 0-.5001818-.22368-.5001818-.49984 0-.276159.2236818-.50016.5001818-.50016zm0 4h7.0000001c.276182 0 .499863.223999.499863.499839 0 .27648-.223681.500159-.499863.500159h-7.0000001c-.2765 0-.5001818-.223679-.5001818-.500159 0-.27584.2236818-.499839.5001818-.499839zm20.4998181-18h-23.9998181c-1.1047273 0-2.0000909.8956798-2.0000909 2v2.9999999h28v-2.9999999c0-1.1043202-.895364-2-2.000091-2zm-22.9997726 3.9999994c-.5523637 0-1.0000455-.4476794-1.0000455-.9999991 0-.552321.4476818-1.0000003 1.0000455-1.0000003.5520455 0 .9997272.4476793.9997272 1.0000003 0 .5523197-.4476817.9999991-.9997272.9999991zm2.9998182 0c-.5523637 0-1.0000455-.4476794-1.0000455-.9999991 0-.552321.4476818-1.0000003 1.0000455-1.0000003.5523634 0 1.0000454.4476793 1.0000454 1.0000003 0 .5523197-.447682.9999991-1.0000454.9999991zm3.0001364 0c-.552364 0-1.000045-.4476794-1.000045-.9999991 0-.552321.447681-1.0000003 1.000045-1.0000003.552046 0 1.000045.4476793 1.000045 1.0000003 0 .5523197-.447999.9999991-1.000045.9999991z" fill="#fff" fill-rule="evenodd" stroke-width=".319089"/></svg>