<svg height="45" width="48" xmlns="http://www.w3.org/2000/svg"><path d="m40 1.9718531h-32c-4.4 0-8 3.5230001-8 7.8280001v19.5719998c0 4.305 3.6 7.828 8 7.828v5.872c0 1.761 2.2 2.544 3.4 1.37l7.4-7.242h21.2c4.4 0 8-3.523 8-7.828v-19.5719998c0-4.305-3.6-7.8280001-8-7.8280001zm-12 23.4849999h-12c-1.2 0-2-.783-2-1.957s.8-1.957 2-1.957h12c1.2 0 2 .783 2 1.957s-.8 1.957-2 1.957zm4-7.828h-16c-1.2 0-2-.783-2-1.957 0-1.175.8-1.957 2-1.957h16c1.2 0 2 .782 2 1.957 0 1.174-.8 1.957-2 1.957z" fill="#fff" fill-rule="evenodd"/></svg>