<svg height="82" width="84" xmlns="http://www.w3.org/2000/svg"><path d="m79.987322 35.72475h-75.9689999c-4.50200008 0-5.354-2.345-1.88-5.229l33.5579999-27.844c3.469-2.86999999 9.135-2.86999999 12.604 0l33.564 27.844c3.468 2.884 2.621 5.229-1.877 5.229zm-37.989-19.548a6.375 6.375 0 0 0 -6.372 6.382c0 3.527 2.852 6.392 6.372 6.392 3.529 0 6.373-2.865 6.373-6.392a6.37 6.37 0 0 0 -6.373-6.382zm-33.5939999 55.043a1.636 1.636 0 0 1 -1.643-1.637v-28.223c0-.9.731-1.637 1.643-1.637h6.2709999c.907 0 1.644.737 1.644 1.637v28.223a1.64 1.64 0 0 1 -1.644 1.637zm20.3009999 0a1.633 1.633 0 0 1 -1.628-1.637v-28.223c0-.9.731-1.637 1.628-1.637h6.286c.898 0 1.634.737 1.634 1.637v28.223c0 .905-.736 1.637-1.634 1.637zm20.311 0c-.909 0-1.64-.732-1.64-1.637v-28.223c0-.9.731-1.637 1.64-1.637h6.276c.907 0 1.638.737 1.638 1.637v28.223c0 .905-.731 1.637-1.638 1.637zm20.299 0a1.634 1.634 0 0 1 -1.632-1.637v-28.223c0-.9.731-1.637 1.632-1.637h6.287c.897 0 1.638.737 1.638 1.637v28.223c0 .905-.74 1.637-1.638 1.637zm-66.6889999 2.748h78.7429999c.907 0 1.634.733 1.634 1.639v4.254c0 .909-.727 1.64-1.634 1.64h-78.7429999a1.642 1.642 0 0 1 -1.63700008-1.64v-4.254c0-.906.74100008-1.639 1.63700008-1.639z" fill="#fff" fill-rule="evenodd"/></svg>