<svg height="88" width="59" xmlns="http://www.w3.org/2000/svg"><path d="m8.6097539 61.775402a1.88 1.88 0 0 0 -1.386.609 1.855 1.855 0 0 0 -.502 1.414c.339 4.479 1.202 15.291 1.947 21.214v.015c.221 1.415 1.4670001 2.544 2.8970001 2.631h.015c12.041.433 24.111.433 36.159 0h.007c1.489-.095 2.765-1.312 2.92-2.8 0-.022 1.386-15.386 1.895-21.03a1.898 1.898 0 0 0 -.487-1.437 1.919 1.919 0 0 0 -1.401-.616zm49.1940001-32.913a2.532 2.532 0 0 0 -.641-1.928 2.55 2.55 0 0 0 -1.873-.821h-51.2660001c-.708 0-1.387.301-1.866.821a2.472 2.472 0 0 0 -.641 1.928c.604 6.297 2.079 21.69 2.632 27.496a2.523 2.523 0 0 0 2.514 2.272h45.9950001a2.515 2.515 0 0 0 2.506-2.272c.561-5.806 2.035-21.199 2.64-27.496zm-24.059 3.453c1.239.469 2.588 1.671 2.883 1.993 2.861 3.16 3.524 8.804.28 13.481-2.426 3.496-6.931 6.077-11.229 4.75-5.456-1.686-7.248-9.603-3.421-15.357 1.946-2.932 5.168-5.168 8.774-5.322h.044c.236-.007.236-.007.472 0h.015a6.892 6.892 0 0 1 2.182.455zm1.571 5.189a.53.53 0 1 0 -.922.008c-2.124 3.768-4.365 7.462-6.57 11.193a.553.553 0 0 0 0 .543.551.551 0 0 0 .487.264c3.392-.396 7.307-3.819 7.727-8.122.133-1.364-.11-2.757-.722-3.886zm-3.687-1.693a.546.546 0 0 0 0-.542.553.553 0 0 0 -.472-.264h-.022c-5.441.227-9.629 7.374-7.329 12.014a.688.688 0 0 0 .605.389.71.71 0 0 0 .626-.359c2.124-3.783 4.38-7.492 6.592-11.238zm-28.7040001-14.558a1.886 1.886 0 0 0 1.88 1.708h49.7030001c.981 0 1.799-.74 1.888-1.708l1.002-11.149a1.724 1.724 0 0 0 -.442-1.3049994 1.728 1.728 0 0 0 -1.268-.55h-52.0630001a1.71 1.71 0 0 0 -1.26.55 1.698 1.698 0 0 0 -.443 1.3049994zm-.354-16.1699994s47.0040001 0 55.0710001-.008a.854.854 0 0 0 .752-1.268c-.494-1.232-1.165-3.04900002-1.394-3.54100002a1.672 1.672 0 0 0 -.383-.044c-18.057-.41-36.129-.08-54.2010001-.08-.641.015-1.025 1.84000002-1.82799998 3.62800002-.465 1.027 1.01699998 1.29 1.74699998 1.305.074 0 .236.008.236.008z" fill="#f8f8f8" fill-rule="evenodd"/></svg>