<svg height="66" width="98" xmlns="http://www.w3.org/2000/svg"><path d="m36.2355.01550012c-15.316 0-30.633 7.61199998-30.633 20.29799988v10.149h86.794v-10.149c0-12.6859999-15.316-20.29799989-30.633-20.29799989zm2.553 5.07399998a2.54 2.54 0 0 1 2.553 2.538 2.54 2.54 0 0 1 -2.553 2.5369999 2.54 2.54 0 0 1 -2.553-2.5369999 2.54 2.54 0 0 1 2.553-2.538zm20.422 0a2.54 2.54 0 0 1 2.553 2.538 2.54 2.54 0 0 1 -2.553 2.5369999 2.54 2.54 0 0 1 -2.553-2.5369999 2.54 2.54 0 0 1 2.553-2.538zm-30.633 10.1499999a2.54 2.54 0 0 1 2.553 2.537 2.54 2.54 0 0 1 -2.553 2.537 2.54 2.54 0 0 1 -2.553-2.537 2.54 2.54 0 0 1 2.553-2.537zm20.422 0a2.54 2.54 0 0 1 2.553 2.537 2.54 2.54 0 0 1 -2.553 2.537 2.54 2.54 0 0 1 -2.553-2.537 2.54 2.54 0 0 1 2.553-2.537zm20.422 0a2.54 2.54 0 0 1 2.553 2.537 2.54 2.54 0 0 1 -2.553 2.537 2.54 2.54 0 0 1 -2.553-2.537 2.54 2.54 0 0 1 2.553-2.537zm-63.819 20.298c-2.553 0-5.105 2.537-5.105 5.074s2.552 5.075 5.105 5.075h86.794c2.553 0 5.106-2.538 5.106-5.075s-2.553-5.074-5.106-5.074zm0 15.223v5.075c0 5.075 5.106 10.149 10.211 10.149h66.372c5.105 0 10.211-5.074 10.211-10.149v-5.075z" fill="#fff" fill-rule="evenodd"/></svg>