<svg height="32.012054" width="39.995998" xmlns="http://www.w3.org/2000/svg"><path d="m39.996 3.7880329a16.438 16.438 0 0 1 -4.713 1.272 8.132 8.132 0 0 0 3.609-4.46899996 16.572 16.572 0 0 1 -5.211 1.95999996 8.258 8.258 0 0 0 -5.992-2.55099996c-4.532 0-8.203 3.61699996-8.203 8.08099996 0 .632.071 1.25.211 1.842a23.424 23.424 0 0 1 -16.914-8.444 7.965 7.965 0 0 0 -1.11 4.063c0 2.804 1.449 5.2770001 3.649 6.7270001a8.28 8.28 0 0 1 -3.715-1.01c-.002.033-.002.068-.002.1 0 3.917 2.828 7.183 6.583 7.926a8.403 8.403 0 0 1 -3.705.139c1.043 3.209 4.075 5.545 7.664 5.612a16.622 16.622 0 0 1 -10.189 3.461c-.663 0-1.316-.038-1.958-.113a23.506 23.506 0 0 0 12.578 3.628c15.093 0 23.348-12.314 23.348-22.9930001 0-.35-.01-.699-.026-1.047a16.503 16.503 0 0 0 4.096-4.184z" fill="#fff" fill-rule="evenodd"/></svg>