<svg height="44" width="50" xmlns="http://www.w3.org/2000/svg"><path d="m41 35.703632h-21.2l-7.4 7.237c-1.2 1.173-3.4.391-3.4-1.369v-5.868c-4.4 0-8-3.52-8-7.822v-19.5570005c0-4.303 3.6-7.82299997 8-7.82299997h32c4.4 0 8 3.51999997 8 7.82299997v19.5570005c0 4.302-3.6 7.822-8 7.822zm-15.816-30.9330005c-8.001 0-13.562 5.3870005-13.562 13.2140005 0 8.017 5.64 13.182 13.831 13.182 1.521 0 2.994-.174 4.135-.476v-2.82c-.824.254-2.329.444-3.802.444-6.607 0-10.901-3.85-10.901-10.251 0-6.242 4.183-10.5040005 10.251-10.5040005 5.83 0 9.617 3.6600005 9.617 9.4110005 0 2.994-.903 4.8-2.281 4.8-.888 0-1.379-.681-1.379-1.79v-8.048h-3.628v1.869h-.269c-.634-1.41-2.012-2.25-3.739-2.25-3.122 0-5.229 2.599-5.229 6.449 0 4.024 2.187 6.686 5.482 6.686 1.822 0 3.074-.824 3.723-2.409h.27c.427 1.521 1.901 2.393 3.945 2.393 3.945 0 6.369-3.121 6.369-8.08 0-7.0820001-5.244-11.8200005-12.833-11.8200005zm-.492 16.6360005c-1.457 0-2.313-1.236-2.313-3.295 0-2.06.872-3.296 2.313-3.296 1.442 0 2.329 1.252 2.329 3.296s-.871 3.295-2.329 3.295z" fill="#fff" fill-rule="evenodd"/></svg>