<svg height="2.566458cm" width="2.936875cm" xmlns="http://www.w3.org/2000/svg"><path d="m55.5 41.571c-7.659 0-13.875 6.209-13.875 13.858s6.216 13.857 13.875 13.857 13.875-6.208 13.875-13.857-6.216-13.858-13.875-13.858zm48.563-27.714h-17.365l-3.448-8.515c-1.845-4.095-4.01-5.342-6.937-5.342h-41.626c-2.927 0-5.092 1.247-6.937 5.342l-3.448 8.515h-17.364c-3.816 0-6.938 3.118-6.938 6.929v69.285c0 3.811 3.122 6.929 6.938 6.929h97.125c3.815 0 6.937-3.118 6.937-6.929v-69.285c0-3.811-3.122-6.929-6.937-6.929zm-48.563 69.286c-15.325 0-27.75-12.409-27.75-27.714 0-15.306 12.425-27.715 27.75-27.715s27.75 12.409 27.75 27.715c0 15.305-12.425 27.714-27.75 27.714z" fill="#fff" fill-rule="evenodd"/></svg>