<svg height="24" width="24" xmlns="http://www.w3.org/2000/svg">
	<path d="m23.680388 22.133624-6.150517-6.15041c1.345055-1.683842 2.151432-3.819011 2.151432-6.14246 0-5.434299-4.406563-9.840754-9.8405256-9.840754-5.434214 0-9.8407774 4.406455-9.8407774 9.840754 0 5.434049 4.4065634 9.840754 9.8407774 9.840754 2.3232546 0 4.4585386-.806526 6.1424436-2.151315l6.150266 6.150409a1.0841685 1.0673361 0 0 0 1.546901 0c.426149-.426239.426149-1.120988 0-1.546978zm-13.8396106-4.63895c-4.2271716 0-7.654022-3.426803-7.654022-7.65392 0-4.227119 3.4268504-7.653921 7.654022-7.653921 4.2269196 0 7.6537706 3.426802 7.6537706 7.653921 0 4.227117-3.426851 7.65392-7.6537706 7.65392z"
	      fill="#fff" fill-rule="evenodd" stroke-width=".250342"/>
</svg>