<svg xmlns="http://www.w3.org/2000/svg" width="94.677" height="3.246cm">
    <path fill="#FFF" fill-rule="evenodd" d="M64.238 92H6.762C3.028 92 0 89.004 0 85.309V41.818c0-3.695 3.028-6.691 6.762-6.691h6.762V21.746C13.524 9.736 23.363 0 35.5 0c12.137 0 21.976 9.736 21.976 21.746v13.381h6.762c3.734 0 6.762 2.996 6.762 6.691v43.491C71 89.004 67.972 92 64.238 92zM28.365 72.959h5.79v-8.406l5.453 8.25v.119h5.79v-6.005h4.641v-5.721h-4.641v-1.468H54v-5.721h-8.602V54h-5.79v8.34l-5.453-8.25v-.053h-5.79v18.922zM20.999 73h5.791V54.078h-5.791V73zm33.096-51.254c0-10.163-8.325-18.401-18.595-18.401s-18.595 8.238-18.595 18.401v13.381h37.19V21.746z"/>
</svg>
