<svg height="43" width="43" xmlns="http://www.w3.org/2000/svg"><path d="m18.429 43h6.142v-23.036h-6.142zm-16.893-1.536c0 .848.687 1.536 1.535 1.536h13.822v-23.036h-15.357zm24.571 1.536h13.822c.848 0 1.535-.688 1.535-1.536v-21.5h-15.357zm15.357-32.25h-8.989a9.974 9.974 0 0 0 1.562-1.001c1.797-1.429 2.829-3.362 2.829-5.305 0-2.616-1.863-4.444-4.529-4.444-3.867 0-6.072 3.709-7.845 6.69-.988 1.663-1.989 3.235-2.992 3.813-1.002-.578-2.004-2.15-2.992-3.813-1.773-2.981-3.978-6.69-7.845-6.69-2.667 0-4.529 1.828-4.529 4.444 0 1.943 1.032 3.876 2.829 5.305.413.329.938.673 1.562 1.001h-8.989c-.848 0-1.536.688-1.536 1.536v6.143h16.893v-7.679h.681c-4.036 0-6.391-1.198-7.655-2.203-1.429-1.136-2.249-2.631-2.249-4.103 0-1.767 1.175-2.908 2.993-2.908 2.993 0 4.789 3.019 6.525 5.938.72 1.213 1.444 2.388 2.244 3.276h-1.003v7.679h6.142v-7.679h-1.003c.8-.888 1.524-2.063 2.244-3.276 1.736-2.919 3.531-5.938 6.525-5.938 1.818 0 2.993 1.141 2.993 2.908 0 1.472-.82 2.967-2.249 4.103-1.264 1.005-3.619 2.203-7.655 2.203h.681v7.679h16.893v-6.143c0-.848-.688-1.536-1.536-1.536z" fill="#a7a7a7" fill-rule="evenodd"/></svg>