<svg height="96" width="100" xmlns="http://www.w3.org/2000/svg"><path d="m82.875 28a6.093 6.093 0 0 0 6.094 6.087c3.363 0 6.095-2.727 6.095-6.087s-2.732-6.087-6.095-6.087a6.093 6.093 0 0 0 -6.094 6.087zm-60.938 32.87v6.696c0 3.019 2.462 5.478 5.485 5.478h67.641l-23.304-22.887a4.941 4.941 0 0 0 -7.017 0l-4.926 4.845-12.432-12.149c-1.95-1.949-5.458-1.949-7.384 0zm-21.937 41.391c0 5.381 4.363 9.739 9.75 9.739h97.5c5.387 0 9.75-4.358 9.75-9.739v-92.522c0-5.381-4.363-9.739-9.75-9.739h-97.5c-5.387 0-9.75 4.359-9.75 9.739zm17.551-90.087h81.899a5.344 5.344 0 0 1 5.363 5.357v59.895a5.344 5.344 0 0 1 -5.363 5.356h-81.899a5.344 5.344 0 0 1 -5.363-5.356v-59.895a5.344 5.344 0 0 1 5.363-5.357z" fill="#fff" fill-rule="evenodd" transform="matrix(.85470085 0 0 .85714286 0 .000021)"/></svg>