<svg height="48" width="68" xmlns="http://www.w3.org/2000/svg"><path d="m67.0855 35.025089-11.272 11.163c-.546.542-1.2.812-1.951.812-1.679 0-2.826-1.422-2.826-2.8 0-.723.263-1.381.82-1.932l6.529-6.468h-27.141c-1.561 0-2.827-1.255-2.827-2.8 0-1.546 1.266-2.8 2.827-2.8h27.141l-6.529-6.468c-.557-.552-.82-1.209-.82-1.932 0-1.377 1.148-2.801 2.826-2.801a2.68 2.68 0 0 1 1.951.813l11.25 11.141c.462.46.936 1.026.936 2.047 0 1.02-.395 1.512-.914 2.025zm-30.331-17.225h-27.142l6.531 6.468c.557.552.821 1.209.821 1.932 0 1.377-1.148 2.8-2.827 2.8-.752 0-1.407-.27-1.952-.812l-11.273-11.163c-.519-.513-.912-1.004-.912-2.025s.471-1.588.936-2.047l11.249-11.1409995a2.678 2.678 0 0 1 1.952-.812c1.676 0 2.827 1.422 2.827 2.8 0 .722-.264 1.381-.821 1.932l-6.531 6.4689995h27.142c1.561 0 2.827 1.253 2.827 2.799s-1.266 2.8-2.827 2.8z" fill="#fff" fill-rule="evenodd"/></svg>