<svg height="24" width="24" xmlns="http://www.w3.org/2000/svg"><path d="m12.000124 0c-6.6274404 0-12.000124 5.3725288-12.000124 12 0 6.627471 5.3726836 12 12.000124 12 6.62744 0 11.999876-5.372529 11.999876-12 0-6.6274712-5.372436-12-11.999876-12zm.652374 17.275062c-.185863.198149-.407116.2971-.664007.2971-.257138 0-.478638-.098951-.664006-.2971-.185861-.197901-.278669-.433651-.278669-.707745 0-.274093.092808-.510091.278669-.707992.185368-.198149.406868-.296852.664006-.296852.256891 0 .478144.098703.664007.296852.185367.197901.278422.433899.278422.707992 0 .274094-.093055.509844-.278422.707745zm2.192235-7.018326c-.104934.289183-.252188.560803-.442753.814612l-.856799.943742-.143046.136799c-.152453.152384-.27372.281762-.364053.388382-.090581.106619-.162104.218434-.214323.334948-.052468.117009-.087858.246387-.106667.388382-.019304.142241-.028956.31961-.028956.532602v.670143h-1.37058v-.928652c0-.274093.018809-.50267.056922-.685234.038113-.182811.094787-.347811.171013-.494753.076226-.147189.178685-.289431.307378-.426478.128445-.136799.287827-.301552.478391-.494506.152205-.152384.304656-.307242.456861-.464574.152451-.157084.290549-.319858.414291-.487332.123496-.167226.226204-.344843.306884-.5326019.08068-.1875116.121268-.3980293.121268-.631553 0-.2335236-.040588-.4494836-.121268-.6476324-.08068-.1979014-.187842-.3678492-.32099-.5098435-.133642-.1422416-.293024-.2535612-.478886-.3351955-.185367-.0806448-.382862-.1212146-.592483-.1212146-.466264 0-.845166.1573316-1.13522.4717475-.290797.3146632-.464037.7255561-.521454 1.2331732l-1.4564579-.1521367c.1234957-.8831351.4687393-1.5757901 1.0354829-2.0779649.566249-.5026696 1.268616-.7540044 2.106358-.7540044.39969 0 .773395.0633284 1.120866.1904801.347471.1269043.649899.3097157.907038.5479395.256891.2384712.459087.5326022.606837.8831351.147749.3497908.221253.7483148.221253 1.1953246 0 .385413-.05222.7230823-.156907 1.0122659z" fill="#fff" stroke-width=".247432"/></svg>