<svg height="44.263" width="25.599001" xmlns="http://www.w3.org/2000/svg"><path d="m25.599 29.781c0-6.681-5.558-8.618-10.811-10.097v-11.066c2.856.408 5.508 1.632 7.497 3.875l2.549-3.11c-2.447-2.601-5.813-4.284-10.046-4.641v-4.742h-3.11v4.64c-6.12.408-10.607 4.131-10.607 9.434 0 6.273 5.405 8.057 10.607 9.434v12.392c-4.029-.408-7.14-2.499-9.128-4.742l-2.55 3.212c2.55 2.907 6.476 5.049 11.678 5.355v4.538h3.11v-4.589c7.905-.561 10.811-5.304 10.811-9.893zm-20.143-15.962c0-3.008 2.55-5.15 6.222-5.354v10.403c-3.417-.969-6.222-2.142-6.222-5.049zm9.332 22.03v-11.525c3.519 1.071 6.477 2.346 6.477 5.814 0 2.345-1.581 5.303-6.477 5.711z" fill="#fff" fill-rule="evenodd"/></svg>