<svg height="71.020813" width="69.976898" xmlns="http://www.w3.org/2000/svg"><path d="m46.547082 1.9146513c-4.148-1.39699996-8.378-2.05399996-12.689-1.88999996-19.278.575-34.48799985 16.84599966-33.83799985 36.40299966a33.54 33.54 0 0 0 2.35900005 11.669c1.22 3.123 2.847 6.081 4.962 8.711l-2.928 6.985c-1.139 2.629.081 5.752 2.765 6.82.895.411 1.952.493 2.9279998.329l13.422-2.383c18.22 6.409 38.149-3.287 44.493-21.694 6.345-18.408-3.254-38.5399997-21.474-44.9499997zm-25.704 39.4439997c-2.928 0-5.368-2.383-5.368-5.424 0-2.958 2.359-5.423 5.368-5.423 2.929 0 5.369 2.383 5.369 5.423 0 3.041-2.44 5.424-5.369 5.424zm14.072 0c-2.928 0-5.368-2.383-5.368-5.424 0-3.04 2.359-5.423 5.368-5.423 2.929 0 5.369 2.383 5.369 5.423 0 3.041-2.44 5.424-5.369 5.424zm14.072 0c-2.928 0-5.368-2.383-5.368-5.424 0-3.04 2.359-5.423 5.368-5.423 2.929 0 5.369 2.383 5.369 5.423 0 3.041-2.44 5.424-5.369 5.424z" fill="#fff" fill-rule="evenodd"/></svg>