<svg height="24" width="45" xmlns="http://www.w3.org/2000/svg"><path d="m22.5 4c-2.219 0-4.018 1.791-4.018 4s1.799 4 4.018 4 4.018-1.791 4.018-4-1.799-4-4.018-4zm12.054-.869v-.011c-.193-.093-.394-.179-.59-.269-.186-.086-.37-.173-.559-.256a34.915 34.915 0 0 0 -1.086-.455c-.151-.061-.3-.125-.452-.184-.48-.186-.965-.361-1.454-.526-.042-.014-.083-.031-.124-.045a29.735 29.735 0 0 0 -3.363-.905l-.03-.007a.014.014 0 0 1 .004.003c-1.473-.301-2.951-.476-4.4-.476s-2.927.175-4.4.476a.014.014 0 0 1 .004-.003l-.03.007c-1.13.232-2.255.538-3.363.905-.041.014-.082.031-.123.044a35 35 0 0 0 -1.455.527c-.152.059-.301.122-.452.183-.365.148-.729.298-1.087.456-.188.083-.371.17-.557.256-.197.09-.398.176-.591.269v.011c-5.91 2.852-10.446 6.908-10.446 8.869 0 3.2 12.054 12 22.5 12s22.5-8.8 22.5-12c0-1.961-4.536-6.017-10.446-8.869zm-12.054 14.469c-5.325 0-9.643-4.323-9.643-9.655 0-1.7.463-3.28 1.234-4.666 2.719-1.004 5.615-1.679 8.409-1.679s5.69.675 8.408 1.678c.772 1.387 1.235 2.967 1.235 4.667 0 5.332-4.318 9.655-9.643 9.655z" fill="#fff" fill-rule="evenodd"/></svg>