<svg height="96" width="112" xmlns="http://www.w3.org/2000/svg"><path d="m56 41.142433c-7.580041 0-13.731959 6.14499-13.731959 13.715134s6.151918 13.714144 13.731959 13.714144 13.731959-6.144 13.731959-13.714144-6.151918-13.715134-13.731959-13.715134zm48.06235-27.428289h-17.185979l-3.412453-8.4272162c-1.82598-4.0527835-3.96866-5.2869278-6.865485-5.2869278h-41.196866c-2.896825 0-5.039505 1.2341443-6.865484 5.2869278l-3.412454 8.4272162h-17.1849898c-3.7766598 0-6.8664742 3.085856-6.8664742 6.857567v68.570722c0 3.771711 3.0898144 6.857567 6.8664742 6.857567h96.1237108c3.77568 0 6.86549-3.085856 6.86549-6.857567v-68.570722c0-3.771711-3.08981-6.857567-6.86549-6.857567zm-48.06235 68.571712c-15.16701 0-27.463917-12.281072-27.463917-27.428289 0-15.148206 12.296907-27.429278 27.463917-27.429278s27.463918 12.281072 27.463918 27.429278c0 15.147217-12.296908 27.428289-27.463918 27.428289z" fill="#fff" fill-rule="evenodd" stroke-width=".989691"/></svg>