<svg height="38" width="46" xmlns="http://www.w3.org/2000/svg"><path d="m44.357 6.609h-42.714c-.907 0-1.643.739-1.643 1.652v28.087c0 .912.736 1.652 1.643 1.652h42.714c.907 0 1.643-.74 1.643-1.652v-28.087c0-.913-.736-1.652-1.643-1.652zm-36.143-4.957h29.572a.823.823 0 0 0 .821-.826.823.823 0 0 0 -.821-.826h-29.572a.823.823 0 0 0 -.821.826c0 .457.367.826.821.826zm-3.285 3.305h36.142c.454 0 .822-.37.822-.827a.825.825 0 0 0 -.822-.826h-36.142a.825.825 0 0 0 -.822.826c0 .457.368.827.822.827z" fill="#a7a7a7" fill-rule="evenodd"/></svg>