<svg height="49.323" width="57.335" xmlns="http://www.w3.org/2000/svg"><path d="m27.651 28.909c-.72-.325-1.4-.631-1.885-.953a22.4 22.4 0 0 0 -1.253-.761c-1.541-.887-2.244-1.292-2.244-3.957 0-3.338 2.744-5.492 2.77-5.512l.144-.11.079-.162c.92-1.875.47-3.455.164-4.167 2-4.418-.421-8.072-.935-8.771-1.302-3.733-4.079-4.521-6.191-4.521-2.504 0-4.728 1.094-4.763 1.114-2.316.923-3.896 2.396-4.695 4.378-1.29 3.201-.12 6.716.304 7.795-1.039 2.501.159 4.208.213 4.283l.161.164c.028.021 2.766 2.129 2.766 5.509 0 3.273-1.801 3.872-4.082 4.629l-.299.098c-2.566.841-7.905 2.591-7.905 8.277v.765h33.8l-.013-.779c-.083-4.589-3.582-6.167-6.136-7.319zm15.335 4.273c-.072-4.03-3.106-5.407-5.321-6.412-.611-.277-1.188-.54-1.595-.811-.386-.258-.747-.467-1.08-.661-1.318-.764-1.863-1.079-1.863-3.31 0-2.817 2.305-4.642 2.326-4.658l.145-.112.08-.163c.787-1.615.431-2.987.161-3.64 1.688-3.813-.352-6.969-.822-7.618-1.139-3.266-3.56-3.957-5.403-3.957-2.169 0-4.098.953-4.119.968-.029.012-.052.027-.081.039.159.317.312.639.442.988.794 1.169 2.953 4.956 1.203 9.515.337 1.106.535 2.832-.431 4.8l-.238.486-.431.328c-.007.006-2.169 1.743-2.169 4.298 0 1.782.14 1.863 1.477 2.632.413.237.86.495 1.337.813.381.253 1.005.534 1.666.832 2.207.995 5.668 2.569 6.72 6.432h8.01z" fill="#fff" fill-rule="evenodd"/></svg>