<svg height="24" width="24" xmlns="http://www.w3.org/2000/svg">
	<path d="m22.364422 5.565309h-3.200128-1.848985-1.919692c-.726924 0-1.31595-.5742338-1.31595-1.2829695 0-.7081057.589026-1.2823395 1.31595-1.2823395h1.919692 1.848985 3.200128c.726603 0 1.315629.5742338 1.315629 1.2823395 0 .7087357-.589026 1.2829695-1.315629 1.2829695zm-2.88018 4.99454h3.200128c.726604 0 1.31563.574233 1.31563 1.282339 0 .708736-.589026 1.282969-1.31563 1.282969h-3.200128-1.848984-4.799872c-.726604 0-1.315629-.574233-1.315629-1.282969 0-.708106.589025-1.282339 1.315629-1.282339h4.799872zm-8.639897-4.99454h-9.5290354c-.72628385 0-1.3153096-.5742338-1.3153096-1.2829695 0-.7081057.58902575-1.2823395 1.3153096-1.2823395h9.5290354c.726603 0 1.31531.5742338 1.31531 1.2823395 0 .7087357-.588707 1.2829695-1.31531 1.2829695zm-9.5290354 5.129672h7.1111826c.7266038 0 1.3156291.573919 1.3156291 1.28234 0 .708106-.5890253 1.282653-1.3156291 1.282653h-7.1111826c-.72628385 0-1.3153096-.574547-1.3153096-1.282653 0-.708421.58902575-1.28234 1.3153096-1.28234zm0 7.694666h2.4888817c.7266037 0 1.3156295.574234 1.3156295 1.282654 0 .708107-.5890258 1.28234-1.3156295 1.28234h-2.4888817c-.72628385 0-1.3153096-.574233-1.3153096-1.28234 0-.70842.58902575-1.282654 1.3153096-1.282654zm6.7202047.045044h5.0487917c.726604 0 1.31531.574234 1.31531 1.282339 0 .708421-.588706 1.28297-1.31531 1.28297h-5.0487917c-.7266037 0-1.3156295-.574549-1.3156295-1.28297 0-.708105.5890258-1.282339 1.3156295-1.282339zm9.2797947 0h5.049113c.726603 0 1.315629.574234 1.315629 1.282339 0 .708421-.589026 1.28297-1.315629 1.28297h-5.049113c-.726604 0-1.315629-.574549-1.315629-1.28297 0-.708105.589025-1.282339 1.315629-1.282339z"
	      fill="#fff" fill-rule="evenodd" stroke-width=".317462"/>
</svg>