<svg height="31" width="43" xmlns="http://www.w3.org/2000/svg"><path d="m0 21.7h16.893v-3.71a8.53 8.53 0 0 1 -3.839-7.14 8.533 8.533 0 0 1 3.839-7.14v-3.71h-16.893zm6.911-14.725c2.12 0 3.839 1.735 3.839 3.875s-1.719 3.875-3.839 3.875c-2.121 0-3.84-1.735-3.84-3.875s1.719-3.875 3.84-3.875zm-6.911 17.825h16.893v-1.55h-16.893zm6.911-11.625a2.314 2.314 0 0 0 2.303-2.325 2.314 2.314 0 0 0 -2.303-2.325 2.314 2.314 0 0 0 -2.304 2.325 2.314 2.314 0 0 0 2.304 2.325zm7.678-2.325a6.98 6.98 0 0 0 2.304 5.189v-10.377a6.977 6.977 0 0 0 -2.304 5.188zm13.822 0a6.977 6.977 0 0 0 -2.304-5.188v10.377a6.98 6.98 0 0 0 2.304-5.189zm-28.411 17.05h16.893v-1.55h-16.893zm0 3.1h16.893v-1.55h-16.893zm26.107-31v3.71a8.533 8.533 0 0 1 3.839 7.14 8.53 8.53 0 0 1 -3.839 7.14v3.71h16.893v-21.7zm9.982 14.725c-2.12 0-3.839-1.735-3.839-3.875s1.719-3.875 3.839-3.875c2.121 0 3.84 1.735 3.84 3.875s-1.719 3.875-3.84 3.875zm-9.982 10.075h16.893v-1.55h-16.893zm-7.678 6.2h6.142v-1.55h-6.142zm7.678 0h16.893v-1.55h-16.893zm9.982-22.475a2.314 2.314 0 0 0 -2.303 2.325 2.314 2.314 0 0 0 2.303 2.325 2.314 2.314 0 0 0 2.304-2.325 2.314 2.314 0 0 0 -2.304-2.325zm-9.982 19.375h16.893v-1.55h-16.893zm-7.678 0h6.142v-1.55h-6.142zm0-3.1h6.142v-1.55h-6.142zm0-23.25v20.15h6.142v-21.7h-6.142z" fill="#fff" fill-rule="evenodd"/></svg>