<svg height="240" width="248" xmlns="http://www.w3.org/2000/svg"><path d="m41.719 187.375c0-2.607-.957-4.862-2.873-6.767-1.915-1.906-4.184-2.858-6.806-2.858-2.723 0-5.016.952-6.882 2.858-1.865 1.905-2.798 4.16-2.798 6.767 0 2.707.933 4.988 2.798 6.843 1.866 1.854 4.159 2.782 6.882 2.782 2.622 0 4.891-.928 6.806-2.782 1.916-1.855 2.873-4.136 2.873-6.843zm24.201-77v96.25c0 2.607-.958 4.863-2.873 6.768-1.917 1.905-4.185 2.857-6.807 2.857h-43.559c-2.623 0-4.891-.952-6.807-2.857s-2.874-4.161-2.874-6.768v-96.25c0-2.607.958-4.863 2.874-6.768s4.184-2.857 6.807-2.857h43.559c2.622 0 4.89.952 6.807 2.857 1.915 1.905 2.873 4.161 2.873 6.768zm179.08 0c0 8.622-2.773 16.092-8.319 22.408 1.513 4.412 2.269 8.222 2.269 11.43.302 7.62-1.866 14.488-6.503 20.604 1.714 5.614 1.714 11.479 0 17.595-1.514 5.715-4.235 10.427-8.169 14.137.909 11.229-1.563 20.302-7.41 27.22-6.454 7.62-16.386 11.53-29.797 11.731h-19.511c-6.655 0-13.915-.777-21.781-2.331-7.864-1.554-13.99-3.008-18.376-4.362-4.386-1.353-10.462-3.333-18.225-5.94-12.403-4.311-20.369-6.517-23.898-6.617-2.622-.1-4.891-1.078-6.806-2.932-1.917-1.855-2.874-4.086-2.874-6.693v-96.4c0-2.507.907-4.688 2.722-6.542 1.816-1.856 3.983-2.883 6.505-3.084 2.419-.2 6.251-3.158 11.495-8.871998a276.286 276.286 0 0 0 15.275-18.197c6.857-8.723002 11.949-14.739002 15.277-18.048002 1.814-1.804 3.377-4.21 4.688-7.218 1.312-3.008 2.194-5.439 2.648-7.295.453-1.855 1.133-4.887 2.042-9.098.705-3.91 1.335-6.968 1.89-9.174.554-2.205 1.538-4.812 2.949-7.82 1.412-3.008 3.126-5.515 5.144-7.519 1.915-1.906 4.183-2.858 6.805-2.858 4.639 0 8.797.527 12.478 1.579 3.68 1.053 6.705 2.357 9.075 3.91 2.37 1.554 4.386 3.584 6.05 6.091 1.663 2.506 2.874 4.762 3.63 6.768.757 2.005 1.361 4.511 1.815 7.519s.706 5.264.757 6.768c.05 1.504.075 3.459.075 5.865 0 3.81-.478 7.62-1.437 11.43-.958 3.81-1.916 6.818-2.874 9.023-.957 2.205-2.345 5.013-4.159 8.422002-.302.602-.806 1.504-1.513 2.707-.706 1.203-1.26 2.306-1.664 3.308-.403 1.003-.807 2.206-1.209 3.61h41.896c7.865 0 14.671 2.857 20.419 8.572 5.747 5.714998 8.621 12.481998 8.621 20.302998z" fill="#fff" fill-rule="evenodd"/></svg>