<svg height="75" viewBox="0 0 279.99999 75.000004" width="280" xmlns="http://www.w3.org/2000/svg"><path d="m19.369715 60.609201c14.047044-5.541416 33.428408-10.904063 53.343204-15.730453 6.223374-1.608792 8.00148-5.541404 7.290238-10.904063a94.620683 95.123244 0 0 1 -.711243-10.725306c0-2.323805-1.244675-2.860073-3.911834-3.932609-10.135209-3.932611-24.360065-10.3677953-34.139651-18.0542598-2.133729-1.78755003-3.200593-1.78755003-4.089646.7150125-.889053 2.8600856-1.955917 8.0439883-2.133728 11.7978423-.355622 4.647635 1.422486 8.222733 5.867753 10.54655 3.911834 2.145062 11.024261 5.005147 19.559174 7.507709-24.360064 9.295269-45.341724 18.054271-53.6988257 22.165637-7.2902378 3.575098-7.46804849 6.435184-6.04556305 6.971452 1.77810675.715012 5.51213105 1.072525 7.29023785 1.430037 3.3784029.536268 6.5789959 0 11.3798839-1.787549zm96.483375-3.199969c0-4.811075-4.62612-7.456643-8.13535-9.702324-1.99401-1.282949-3.74875-2.885619-3.74875-4.730627 0-3.447419 3.82826-6.89484 11.8841-11.78711 6.22134-3.76841 13.39956-7.376712 23.21013-10.744459.79762-.240542.87737-1.523503-.95712-4.089399-1.99402-2.885618-3.82852-4.329965-6.69991-4.329965-4.86541 0-13.79836 4.08941-21.93396 9.622134-8.45439 5.69309-14.276929 11.706676-14.276929 17.64032 0 4.490331 3.429206 6.655308 7.018949 8.900215 4.22732 2.646084 5.583 3.929033 5.583 6.09402 0 4.891251-10.049604 9.702054-22.651554 9.702054-1.036891 0-2.313063-.080177-3.110671-.080177-.95713 0-1.355934 1.443314 1.355933 5.132826 2.472585 3.367735 5.503495 5.21198 9.331759 5.21198 9.891103-.001525 23.131133-8.340711 23.131133-16.840005zm16.59076 10.423715c5.26421-6.815425 12.12338-15.1546 19.22209-23.734082-1.51545 4.890991-2.55235 9.46151-3.82852 15.074423-1.03689 4.650437-1.03689 7.697442 1.35594 8.739848 1.8345.721651 3.0309 1.123604 4.70589 1.363125 1.51545.240554 2.55234-.240542 4.4666-2.966816 12.68172-18.121428 23.28964-31.030864 31.42524-40.011266 4.86591-5.372605 5.66353-6.49622 6.14209-8.339691.31904-1.20276.87737-2.485719.87737-2.885619 0-.399899-.31905-.481109-.63808-.160365-8.29487 7.056226-24.4063 24.375803-36.05138 38.968602 2.15355-7.937996 4.14756-15.234778 6.30111-21.489165.87737-2.565907-.23928-3.768409-1.8345-4.730626-.87737-.40092-2.07379-1.042393-2.79163-1.042393-.63808 0-1.35593.320731-2.31306 1.363136-5.74252 6.254129-13.39956 15.475074-20.41826 24.535923 4.22707-10.664283 7.73654-19.244011 11.24602-26.379148 2.6321-5.372358 2.39283-7.537335-.31904-9.301391-1.35594-.882028-2.87037-1.844245-4.06781-2.806463-.87736-.801839-1.51545-.160365-2.31305 1.282961-6.38062 11.706922-15.1543 33.19584-19.22211 43.940545-1.43543 3.768668-1.914 6.89484.15953 9.142046 1.11767 1.202772 1.59521 1.603691 2.87038 2.325354 1.8355.959402 2.31407.478294 5.02594-2.889454zm72.9011 6.974514c.63809-.400921 1.67499-.962217 2.07379-1.202771 1.27617-.882028 2.07377-1.60368 2.79162-3.848844 2.55134-8.098375 5.34296-16.277185 8.45465-23.974639l2.15405-.721663c1.75524-.561802 1.91273-.721651 1.91273-1.042393 0-.400919-.23877-.962217-1.27516-2.004611a3.7512973 3.7712217 0 0 0 -.95763-.721662 195.29429 196.33156 0 0 1 9.17249-19.244c1.59521-2.885619.95764-5.051628-2.31154-6.013832-2.63414-.721663-5.18445-2.0848-6.54089-2.0848-1.91528 0-3.5105 1.042394-8.37488 4.811061-7.97608 6.254388-29.83054 28.224414-38.28518 39.851159-3.66901 5.132825-3.74876 8.018431-.39881 10.66427 2.31306 1.924422 4.54688 2.966816 5.26421 2.966816.63809 0 .79761-.561801 1.03689-1.363124.87737-3.447421 2.79162-6.575131 7.81631-12.829259 6.14157-3.127194 13.95814-6.334565 22.57256-9.461757-2.63262 8.820282-4.86592 18.041239-6.14209 25.578574-.15952.963237.55832.963237 1.03688.641475zm-8.21536-27.662354a273.0001 274.4501 0 0 1 21.2151-21.168176c-1.99402 4.650438-4.06678 10.503905-6.13955 16.838469-5.10545 1.363137-10.20989 2.806463-15.07555 4.329707zm24.16676 24.856924c1.2777 0 5.90331-1.123603 8.93372-1.363138 2.39282-.320742 3.58924-1.042406 4.62561-2.646084 5.74329-7.697454 10.52893-14.432949 14.83704-20.607911 11.32399-10.263351 20.89529-19.965416 28.31254-28.224413 1.51646-1.683867 1.99402-2.565897 1.99402-3.60829a7.5716868 7.6119025 0 0 0 -.23877-2.004611c-.16004-.400932-.47756-.320743-.95765.080177-7.41724 6.97605-16.35096 15.07467-29.43021 26.059683.39881-6.013833 1.11767-12.508516 1.59522-16.678102.71887-5.773279-.55883-7.37697-2.55285-8.339175-1.11512-.641486-3.98804-1.603691-5.10316-1.603691-.64013 0-.95764.561802-1.35645 2.485719-1.83399 7.6977-3.82801 20.526947-5.10571 30.710378-5.82203 8.65966-11.48402 17.479686-15.87087 24.535924-.39855.642236-.3198 1.203534.31777 1.203534z" fill="#d7befc" fill-rule="evenodd" stroke-width=".254689"/></svg>