<svg height="512" viewBox="0 0 512 512" width="512" xmlns="http://www.w3.org/2000/svg">
	<g transform="translate(0 -161.53332)">
		<g transform="translate(0 161.53332)">
			<path d="m331.0957 187.22461c-2.35896 0-4.6624.66345-6.58398 1.9668-1.766 1.19782-3.296 2.78675-4.60547 4.68554l-.01172.01563-63.81836 94.88281h26.38086l45.03516-68.85547 12.17578 25.11328-22.5-.63086-13.06445 20.09766 45.0957.31055 11.41016 23.96484h26.8164l-46.17578-94.4375c-.9198-1.96435-2.17193-3.65791-3.76367-4.94531-1.74712-1.4865-4.04705-2.16797-6.39063-2.16797zm-197.3125.43359 1.91407 4.46485 38.41015 89.58398.00586.01172c1.9015 4.32836 6.10505 7.05664 10.8457 7.05664 2.24691 0 4.45665-.58532 6.44532-1.68359 2.05488-1.13487 3.78131-2.82532 5.14843-4.89453l.01172-.01954 14.25782-22.23242 9.02734 21.74414.01172.0293c.95924 2.18356 2.44594 4.05076 4.39844 5.2793 1.87505 1.17978 4.07177 1.77734 6.31835 1.77734 2.23195 0 4.42744-.58335 6.40626-1.66797 2.13482-1.12342 3.93597-2.81787 5.31835-4.91015l.00586-.00977 61.45899-94.5293h-25.90625l-43.54688 68.02149-26.66406-68.02149h-26.63281l20.32617 49.24024-12.67969 19.03125-28.34961-68.27149zm250.67969 0 2.98242 4.875 34.42774 56.28907-24.27539 39.95312h28.96679l62.48047-101.11719h-26.38476l-26.58594 40.33985-25.42383-40.33985zm-319.93164.96875c-4.933912 0-9.497842.7351-13.640625 2.2461-4.056401 1.39821-7.654227 3.38288-10.710937 5.96289l-.019532.01758-.019531.01562c-2.969184 2.58699-5.382836 5.7208-7.203125 9.32227l-.009766.01953-.009765.01953c-1.720462 3.51778-2.803571 7.35933-3.257813 11.46289-.465403 4.20442-.203307 8.1945.847656 11.89453l.011719.03711.011719.03711c1.133436 3.65203 2.935973 6.91096 5.380859 9.66016l.041016.04882.044922.04493c2.567538 2.66513 5.767257 4.75621 9.482422 6.27148l.046875.01953.046875.01563c3.869426 1.43881 8.17047 2.1289 12.853515 2.1289h34.080078c3.866534 0 6.144243.89094 7.433594 2.16211l.048828.04883.052736.04688c1.29473 1.16989 1.94106 2.86339 1.56445 6.26562-.33223 3.00141-1.41499 5.04813-3.457029 6.76758l-.021485.01758-.019531.01757c-1.866667 1.62438-4.459966 2.52281-8.314453 2.55274l-64.669922.50391-10.169922 21.78906h73.058594c4.989194 0 9.666175-.21506 14.041018-1.8125 4.16562-1.49052 7.79712-3.58085 10.80078-6.28516l.01953-.01562.01758-.01758c2.96944-2.75917 5.34696-6.02429 7.08398-9.72266 1.72712-3.67729 2.82149-7.67434 3.29297-11.93359 1.06777-9.64604-.79564-17.60475-6.11719-22.91211-5.2021-5.2725-13.11895-7.62891-23.123043-7.62891h-33.949219c-2.993454 0-4.736572-.73075-5.960937-1.9707-1.079087-1.17241-1.628442-2.80552-1.298829-5.7832.332086-3.00004 1.308339-4.88716 2.921876-6.28516l.023437-.01953.021484-.02149c1.648621-1.48432 3.75768-2.29662 6.900391-2.25976l67.10352.78711-9.91211-23.51563z"
			      fill="#fff"/>
			<path d="m364.08398 316.50391c-1.24306 0-2.34158.29449-3.29296.88476-.94445.59028-1.66885 1.43121-2.17579 2.52149-.50694 1.09027-.76171 2.35069-.76171 3.78125v1.41601c.02083 1.39584.28125 2.62218.78125 3.67774.5 1.05555 1.20833 1.87088 2.125 2.44726.92361.56945 1.99088.85352 3.19921.85352 1.72917 0 3.11459-.45074 4.15625-1.35352 1.04167-.90972 1.63825-2.17296 1.79102-3.79101h-2.625c-.13889 1.08333-.4694 1.85699-.99023 2.32226-.52084.46528-1.29732.69727-2.33204.69727-1.13194 0-1.9937-.4299-2.58398-1.29102-.58333-.8611-.875-2.1111-.875-3.75v-1.34375c.01389-1.61805.32639-2.8444.9375-3.67773.61806-.84028 1.50065-1.25977 2.64648-1.25977.98611 0 1.73134.2424 2.23829.72852.51388.47916.83398 1.26519.95898 2.35547h2.625c-.16667-1.65973-.76042-2.94575-1.78125-3.85547s-2.36741-1.36328-4.04102-1.36328zm-274.249996.20703v15.16797h2.625v-5l-.261718-6.67774 4.46875 11.67774h1.886718l4.478516-11.6875-.25977 6.6875v5h2.625v-15.16797h-3.40625l-4.36523 11.625-4.375-11.625zm39.249996 0-5.73046 15.16797h2.74023l1.22852-3.53125h5.875l1.24023 3.53125h2.75l-5.74023-15.16797zm25.83204 0v15.16797h2.63671v-5.84375h2.9375l3.04102 5.84375h2.82227v-.13672l-3.40625-6.32227c.875-.36805 1.55685-.89171 2.04296-1.57226.49306-.6875.73829-1.53884.73829-2.55274 0-1.4861-.4744-2.62152-1.42579-3.40625-.95138-.78472-2.30273-1.17773-4.05273-1.17773zm29.33398 0v15.16797h2.63477v-4.73047l1.71875-1.82227 4.5625 6.55274h3.125l-5.95704-8.44922 5.63477-6.71875h-3.1875l-4.4375 5.3125-1.45898 1.80273v-7.11523zm29.45898 0v15.16797h9.91602v-2.10547h-7.28125v-4.66602h6.22852v-2.08398h-6.22852v-4.1875h7.20898v-2.125zm27.21875 0v2.125h4.6875v13.04297h2.61329v-13.04297h4.73046v-2.125zm30.03125 0v15.16797h2.63477v-5.63672h3.13477c1.75694 0 3.12153-.4119 4.09375-1.23828.97916-.8264 1.46875-1.98265 1.46875-3.46875 0-1.4514-.5-2.61806-1.5-3.5-.99306-.88195-2.33681-1.32422-4.03125-1.32422zm29.625 0v15.16797h9.51954v-2.10547h-6.88477v-13.0625zm32.125 0-5.73046 15.16797h2.74023l1.22852-3.53125h5.875l1.24023 3.53125h2.75l-5.74023-15.16797zm55.54102 0v15.16797h9.91602v-2.10547h-7.28125v-4.66602h6.23046v-2.08398h-6.23046v-4.1875h7.20898v-2.125zm-230.69727 2.125h2.78125c.91667.01388 1.60417.24305 2.0625.6875.46528.44444.69727 1.07422.69727 1.88672 0 .77777-.25 1.39235-.75 1.84375-.5.44444-1.19509.66601-2.08398.66601h-2.70704zm116.04102 0h3.24023c.875.01388 1.5625.26866 2.0625.76172.5.4861.75 1.13758.75 1.95703 0 .83333-.24717 1.47352-.74023 1.91797-.49305.4375-1.20898.65625-2.14648.65625h-3.16602zm-143.33398 1.09375 2.19921 6.29297h-4.39648zm203.625 0 2.19921 6.29297h-4.39648z"
			      fill="#ececec"/>
		</g>
	</g>
</svg>