<svg height="88" viewBox="0 0 240 88" width="240" xmlns="http://www.w3.org/2000/svg">
	<path d="m165.38971.13149a6.7374088 6.750182 0 0 0 -3.78663 1.13315 10.206651 10.226001 0 0 0 -2.6491 2.6989l-.00766.00909-36.71086 54.66121h15.17586l25.90634-39.66712 7.00385 14.46762-9.16654.07304-7.51452 11.57812 22.16311-.2576 6.56468 13.80594 8.74268-15.13045c-8.85375-18.13492-11.02538-21.13926-19.87914-39.27418a7.9475711 7.9626386 0 0 0 -2.16524-2.84894c-1.00475-.85584-2.32866-1.24878-3.67683-1.24878zm-99.345537 20.46646c7.731685 18.06086 7.420048 15.77677 15.152116 33.837l.003447.00677a6.7601336 6.7729499 0 0 0 6.238866 4.06536 7.6692555 7.6837953 0 0 0 3.707599-.96994 8.5259059 8.5420698 0 0 0 2.961891-2.81977l.006766-.01113 5.915102-8.86414 3.66853 8.71065.00677.01688c.55178 1.25787 1.4069 2.33359 2.52999 3.04144a6.8183501 6.8312767 0 0 0 3.6347 1.02328 7.6695108 7.6840511 0 0 0 3.68513-.96086 8.3494691 8.3652985 0 0 0 3.0593-2.82873l.00332-.00562 35.35285-54.45784h-14.90138l-25.05032 39.18682-15.338253-39.18682h-15.320127l12.581654 32.56582-4.372109 6.63853-8.263549-18.9877zm111.637377-20.21665 21.51968 43.12235-9.6453 15.13019h14.63072l35.81335-58.63384h-13.90685l-19.35825 32.32279-15.64057-31.94149zm-149.163389.43093c-2.838181.0092-5.464179.42338-7.846714 1.29394a19.132285 19.168557 0 0 0 -6.161244 3.43514l-.011235.01024-.011362.00894a17.557887 17.591174 0 0 0 -4.143456 5.37042l-.005618.01126-.005489.01139a19.887057 19.92476 0 0 0 -1.8741626 6.60359c-.2681023 2.4221-.116816 4.72077.4876907 6.85238l.0066387.02124.006894.02136a14.94989 14.978233 0 0 0 3.0951762 5.56522l.023619.02801.025533.02558c1.47686 1.53493 3.317446 2.74009 5.454604 3.61295l.026938.01125.027065.00909c2.225887.82885 4.69996 1.22639 7.393876 1.22639h19.604401c2.224227 0 3.534481.51331 4.276102 1.24559l.028087.02814.030385.02699c.744686.67395 1.116582 1.65003.89993 3.60961-.191119 1.72972-.813754 2.90866-1.988297 3.8992l-.012767.01011-.011107.01011c-1.073813.93578-2.566121 1.45318-4.782816 1.47095l-36.1228163-.24929-6.9280167 13.09182h42.026172c2.86997 0 5.560312-.12394 8.076898-1.04425 2.396196-.85867 4.485223-2.06281 6.213078-3.62075l.011235-.00908.010085-.0101a18.074175 18.108441 0 0 0 4.075026-5.60117 21.653723 21.694775 0 0 0 1.894206-6.8749c.614082-5.55691-.457688-10.14183-3.518777-13.19952-2.992532-3.03734-7.546695-4.39485-13.301317-4.39485h-19.528949c-1.721982 0-2.724685-.42095-3.4289-1.13532-.620848-.67537-.936826-1.61627-.747239-3.33168.191502-1.72831.752601-2.81541 1.680746-3.62086l.013532-.01126.012767-.01279c.948444-.8552 2.16167-1.3231 3.969445-1.30174l51.674915.30789-5.702278-13.54668zm28.916867 86.90829v-16.84507h-3.024449l-5.420516 13.42412h-.09307l-5.432134-13.42412h-3.012064v16.84507h2.37296v-12.39753h.081452l5.070962 12.39753h1.930846l5.0596-12.39753h.081452v12.39753h2.384578zm14.027108 0h2.756729l-6.060259-16.84444h-2.814946l-6.059876 16.84444h2.710258l1.534949-4.55359h6.397685zm-4.769156-14.04347h.069707l2.500883 7.38909h-5.071473zm11.980084-.60706h3.58274c2.012298 0 3.233695 1.14402 3.233695 3.0234 0 1.92606-1.151563 3.03504-3.163989 3.03504h-3.652446zm0 8.17126h3.58274l3.419707 6.47863h3.001085l-3.757133-6.88717c2.04728-.6888 3.256931-2.53261 3.256931-4.80941 0-3.14006-2.151839-5.14785-5.606528-5.14785h-6.502372v16.84507h2.60557v-6.47863zm14.620636 6.47927v-5.61524l1.721599-1.97276 5.816031 7.58761h3.2337l-7.211954-9.38525 6.653534-7.45918h-3.09403l-7.014193 8.01994h-.104687v-8.01994h-2.605571v16.84482zm23.08884-2.264h-8.04882v-5.23087h7.61909v-2.17115h-7.61909v-4.92606h8.04945v-2.25299h-10.65566v16.84507h10.65503zm9.44421 2.264v-14.59208h5.12969v-2.25299h-12.87643v2.25299h5.14105v14.59208zm7.24642-16.84444v16.84444h2.6057v-5.75594h3.60534c3.29255 0 5.60717-2.264 5.60717-5.5564 0-3.28012-2.26866-5.53313-5.52546-5.53313h-6.29275zm2.6057 2.20619h3.00019c2.25717 0 3.54789 1.21412 3.54789 3.33844 0 2.12433-1.29072 3.35022-3.55938 3.35022h-2.9887v-6.6893zm21.91417 12.37361h-7.8171v-14.58043h-2.6057v16.84507h10.4228v-2.264zm13.16637 2.264h2.75635l-6.06039-16.84443h-2.81507l-6.06039 16.84507h2.71039l1.53584-4.55256h6.39743zm-4.76967-14.04283h.07022l2.50101 7.38909h-5.07224zm15.86527 14.32295c3.86195 0 6.49063-2.04285 7.13024-5.52135h-2.59293c-.52343 2.03108-2.18695 3.23343-4.52582 3.23343-3.0819 0-5.03649-2.48644-5.03649-6.42031 0-3.89882 1.97757-6.40827 5.025-6.40827 2.28015 0 4.07133 1.41251 4.53731 3.572h2.58144c-.44173-3.51367-3.31425-5.85992-7.11875-5.85992-4.68668 0-7.68815 3.36185-7.68815 8.69645 0 5.36952 2.97721 8.70797 7.68815 8.70797zm20.13448-2.54477h-8.04945v-5.22958h7.61921v-2.17115h-7.61921v-4.92606h8.04945v-2.25299h-10.65515v16.84507h10.65515v-2.264z"
	      fill="#FFFFFF" fill-rule="evenodd" stroke-width=".127789"/>
</svg>