<svg viewBox="0 0 72 72" xmlns="http://www.w3.org/2000/svg"><path d="m68 0h-64a4 4 0 0 0 -4 4v64a4 4 0 0 0 4 4h34.46v-27.84h-9.35v-10.9h9.35v-8c0-9.3 5.68-14.37 14-14.37a77.46 77.46 0 0 1 8.38.43v9.68h-5.74c-4.51 0-5.39 2.15-5.39 5.3v6.94h10.79l-1.4 10.9h-9.39v27.86h18.29a4 4 0 0 0 4-4v-64a4 4 0 0 0 -4-4z" fill="#4267b2"/><path d="m49.71 72v-27.84h9.39l1.4-10.9h-10.79v-6.94c0-3.15.88-5.3 5.39-5.3h5.72v-9.72a77.46 77.46 0 0 0 -8.38-.43c-8.3 0-14 5.07-14 14.37v8h-9.33v10.9h9.35v27.86z" fill="#fff"/></svg>