<svg height="54.000057" width="66.999001" xmlns="http://www.w3.org/2000/svg"><path d="m66.999 6.3910303a27.457 27.457 0 0 1 -7.895 2.145c2.838-1.686 5.018-4.357 6.046-7.53899996a27.642 27.642 0 0 1 -8.729 3.30599996 13.79 13.79 0 0 0 -10.037-4.30299996c-7.592 0-13.743 6.10199996-13.743 13.63099966 0 1.067.12 2.11.354 3.107a39.138 39.138 0 0 1 -28.333-14.2439997 13.51 13.51 0 0 0 -1.859 6.854c0 4.7309997 2.427 8.9019997 6.113 11.3489997a13.79 13.79 0 0 1 -6.224-1.706c-.003.056-.003.117-.003.171 0 6.606 4.738 12.116 11.027 13.369a13.967 13.967 0 0 1 -6.206.235c1.747 5.412 6.826 9.354 12.838 9.466a27.713 27.713 0 0 1 -17.068 5.838c-1.11 0-2.205-.064-3.28-.191a39.175 39.175 0 0 0 21.071 6.121c25.281 0 39.11-20.771 39.11-38.787 0-.589-.017-1.179-.042-1.765a27.756 27.756 0 0 0 6.86-7.0569997z" fill="#55acee" fill-rule="evenodd"/></svg>