<?xml version="1.0" encoding="UTF-8" standalone="no"?>
<svg
   xmlns:dc="http://purl.org/dc/elements/1.1/"
   xmlns:cc="http://creativecommons.org/ns#"
   xmlns:rdf="http://www.w3.org/1999/02/22-rdf-syntax-ns#"
   xmlns:svg="http://www.w3.org/2000/svg"
   xmlns="http://www.w3.org/2000/svg"
   xmlns:sodipodi="http://sodipodi.sourceforge.net/DTD/sodipodi-0.dtd"
   xmlns:inkscape="http://www.inkscape.org/namespaces/inkscape"
   width="93"
   height="75"
   version="1.1"
   id="svg4"
   sodipodi:docname="cars.svg"
   inkscape:version="0.92.3 (2405546, 2018-03-11)">
  <metadata
     id="metadata10">
    <rdf:RDF>
      <cc:Work
         rdf:about="">
        <dc:format>image/svg+xml</dc:format>
        <dc:type
           rdf:resource="http://purl.org/dc/dcmitype/StillImage" />
        <dc:title></dc:title>
      </cc:Work>
    </rdf:RDF>
  </metadata>
  <defs
     id="defs8" />
  <sodipodi:namedview
     pagecolor="#ffffff"
     bordercolor="#666666"
     borderopacity="1"
     objecttolerance="10"
     gridtolerance="10"
     guidetolerance="10"
     inkscape:pageopacity="0"
     inkscape:pageshadow="2"
     inkscape:window-width="6400"
     inkscape:window-height="3467"
     id="namedview6"
     showgrid="false"
     fit-margin-top="0"
     fit-margin-left="0"
     fit-margin-right="0"
     fit-margin-bottom="0"
     inkscape:pagecheckerboard="true"
     inkscape:zoom="2.391496"
     inkscape:cx="-91.909613"
     inkscape:cy="21.10424"
     inkscape:window-x="6384"
     inkscape:window-y="-16"
     inkscape:window-maximized="1"
     inkscape:current-layer="svg4" />
  <path
     d="m 85.652005,31.16 -7.282,-20.72 C 76.385005,4.795 71.013005,1 65.005005,1 h -38.01 c -6.008,0 -11.38,3.795 -13.361,9.437 L 6.3520053,31.157 A 14.095,14.095 0 0 0 5.3356742e-6,42.947 V 67.952 C 5.3356742e-6,71.846 3.1670053,75 7.0770053,75 10.987005,75 14.154005,71.846 14.154005,67.952 v -4.443 c 0,0 18.686,0.92 31.846,0.92 13.16,0 31.846,-0.92 31.846,-0.92 v 4.443 c 0,3.894 3.167,7.048 7.077,7.048 3.91,0 7.077,-3.154 7.077,-7.048 V 42.947 a 14.1,14.1 0 0 0 -6.348,-11.787 z m -69.393,-6.857 4.055,-11.537 a 7.077,7.077 0 0 1 6.681,-4.718 h 38.01 a 7.077,7.077 0 0 1 6.681,4.718 l 4.055,11.537 c 0.637,1.815 -0.881,3.644 -2.788,3.337 -6.939,-1.117 -15.86,-1.973 -26.953,-1.973 -11.093,0 -20.014,0.856 -26.952,1.973 -1.908,0.307 -3.426,-1.522 -2.789,-3.337 z m -0.336,26.03 c -2.93,0 -5.308,-2.368 -5.308,-5.285 0,-2.918 2.378,-5.286 5.308,-5.286 2.93,0 5.308,2.368 5.308,5.286 0,2.917 -2.378,5.285 -5.308,5.285 z m 40.692,-3.523 h -21.23 a 3.533,3.533 0 0 1 -3.539,-3.524 3.533,3.533 0 0 1 3.539,-3.524 h 21.23 a 3.533,3.533 0 0 1 3.539,3.524 3.533,3.533 0 0 1 -3.539,3.524 z m 19.462,3.523 c -2.93,0 -5.308,-2.368 -5.308,-5.285 0,-2.918 2.378,-5.286 5.308,-5.286 2.93,0 5.308,2.368 5.308,5.286 0,2.917 -2.378,5.285 -5.308,5.285 z"
     id="path2"
     style="fill:#ffffff;fill-rule:evenodd"
     inkscape:connector-curvature="0" />
</svg>
