<svg height="75" width="93" xmlns="http://www.w3.org/2000/svg"><path d="m85.652005 31.16-7.282-20.72c-1.985-5.645-7.357-9.44-13.365-9.44h-38.01c-6.008 0-11.38 3.795-13.361 9.437l-7.2819997 20.72a14.095 14.095 0 0 0 -6.35199996 11.79v25.005c0 3.894 3.16699996 7.048 7.07699996 7.048 3.9099997 0 7.0769997-3.154 7.0769997-7.048v-4.443s18.686.92 31.846.92 31.846-.92 31.846-.92v4.443c0 3.894 3.167 7.048 7.077 7.048s7.077-3.154 7.077-7.048v-25.005a14.1 14.1 0 0 0 -6.348-11.787zm-69.393-6.857 4.055-11.537a7.077 7.077 0 0 1 6.681-4.718h38.01a7.077 7.077 0 0 1 6.681 4.718l4.055 11.537c.637 1.815-.881 3.644-2.788 3.337-6.939-1.117-15.86-1.973-26.953-1.973s-20.014.856-26.952 1.973c-1.908.307-3.426-1.522-2.789-3.337zm-.336 26.03c-2.93 0-5.308-2.368-5.308-5.285 0-2.918 2.378-5.286 5.308-5.286s5.308 2.368 5.308 5.286c0 2.917-2.378 5.285-5.308 5.285zm40.692-3.523h-21.23a3.533 3.533 0 0 1 -3.539-3.524 3.533 3.533 0 0 1 3.539-3.524h21.23a3.533 3.533 0 0 1 3.539 3.524 3.533 3.533 0 0 1 -3.539 3.524zm19.462 3.523c-2.93 0-5.308-2.368-5.308-5.285 0-2.918 2.378-5.286 5.308-5.286s5.308 2.368 5.308 5.286c0 2.917-2.378 5.285-5.308 5.285z" fill="#fff" fill-rule="evenodd"/></svg>