<?xml version="1.0" encoding="UTF-8" standalone="no"?>
<svg
   xmlns:dc="http://purl.org/dc/elements/1.1/"
   xmlns:cc="http://creativecommons.org/ns#"
   xmlns:rdf="http://www.w3.org/1999/02/22-rdf-syntax-ns#"
   xmlns:svg="http://www.w3.org/2000/svg"
   xmlns="http://www.w3.org/2000/svg"
   xmlns:sodipodi="http://sodipodi.sourceforge.net/DTD/sodipodi-0.dtd"
   xmlns:inkscape="http://www.inkscape.org/namespaces/inkscape"
   width="59"
   height="88"
   version="1.1"
   id="svg4"
   sodipodi:docname="drinks.svg"
   inkscape:version="0.92.3 (2405546, 2018-03-11)">
  <metadata
     id="metadata10">
    <rdf:RDF>
      <cc:Work
         rdf:about="">
        <dc:format>image/svg+xml</dc:format>
        <dc:type
           rdf:resource="http://purl.org/dc/dcmitype/StillImage" />
        <dc:title></dc:title>
      </cc:Work>
    </rdf:RDF>
  </metadata>
  <defs
     id="defs8" />
  <sodipodi:namedview
     pagecolor="#ffffff"
     bordercolor="#666666"
     borderopacity="1"
     objecttolerance="10"
     gridtolerance="10"
     guidetolerance="10"
     inkscape:pageopacity="0"
     inkscape:pageshadow="2"
     inkscape:window-width="6400"
     inkscape:window-height="3467"
     id="namedview6"
     showgrid="false"
     units="px"
     fit-margin-top="0"
     fit-margin-left="0"
     fit-margin-right="0"
     fit-margin-bottom="0"
     inkscape:zoom="2.0116516"
     inkscape:cx="-143.52553"
     inkscape:cy="25.113097"
     inkscape:window-x="6384"
     inkscape:window-y="-16"
     inkscape:window-maximized="1"
     inkscape:current-layer="svg4" />
  <path
     d="m 8.6097539,61.775402 a 1.88,1.88 0 0 0 -1.386,0.609 1.855,1.855 0 0 0 -0.502,1.414 c 0.339,4.479 1.202,15.291 1.947,21.214 v 0.015 c 0.221,1.415 1.4670001,2.544 2.8970001,2.631 h 0.015 c 12.041,0.433 24.111,0.433 36.159,0 h 0.007 c 1.489,-0.095 2.765,-1.312 2.92,-2.8 0,-0.022 1.386,-15.386 1.895,-21.03 a 1.898,1.898 0 0 0 -0.487,-1.437 1.919,1.919 0 0 0 -1.401,-0.616 z m 49.1940001,-32.913 a 2.532,2.532 0 0 0 -0.641,-1.928 2.55,2.55 0 0 0 -1.873,-0.821 H 4.0237539 c -0.708,0 -1.387,0.301 -1.866,0.821 a 2.472,2.472 0 0 0 -0.641,1.928 c 0.604,6.297 2.079,21.69 2.632,27.496 a 2.523,2.523 0 0 0 2.514,2.272 H 52.657754 a 2.515,2.515 0 0 0 2.506,-2.272 c 0.561,-5.806 2.035,-21.199 2.64,-27.496 z m -24.059,3.453 c 1.239,0.469 2.588,1.671 2.883,1.993 2.861,3.16 3.524,8.804 0.28,13.481 -2.426,3.496 -6.931,6.077 -11.229,4.75 -5.456,-1.686 -7.248,-9.603 -3.421,-15.357 1.946,-2.932 5.168,-5.168 8.774,-5.322 h 0.044 c 0.236,-0.007 0.236,-0.007 0.472,0 h 0.015 a 6.892,6.892 0 0 1 2.182,0.455 z m 1.571,5.189 a 0.53,0.53 0 1 0 -0.922,0.008 c -2.124,3.768 -4.365,7.462 -6.57,11.193 a 0.553,0.553 0 0 0 0,0.543 0.551,0.551 0 0 0 0.487,0.264 c 3.392,-0.396 7.307,-3.819 7.727,-8.122 0.133,-1.364 -0.11,-2.757 -0.722,-3.886 z m -3.687,-1.693 a 0.546,0.546 0 0 0 0,-0.542 0.553,0.553 0 0 0 -0.472,-0.264 h -0.022 c -5.441,0.227 -9.629,7.374 -7.329,12.014 a 0.688,0.688 0 0 0 0.605,0.389 0.71,0.71 0 0 0 0.626,-0.359 c 2.124,-3.783 4.38,-7.492 6.592,-11.238 z m -28.7040001,-14.558 a 1.886,1.886 0 0 0 1.88,1.708 H 54.507754 c 0.981,0 1.799,-0.74 1.888,-1.708 l 1.002,-11.149 a 1.724,1.724 0 0 0 -0.442,-1.3049994 1.728,1.728 0 0 0 -1.268,-0.55 H 3.6247539 a 1.71,1.71 0 0 0 -1.26,0.55 1.698,1.698 0 0 0 -0.443,1.3049994 z m -0.354,-16.1699994 c 0,0 47.0040001,0 55.0710001,-0.008 a 0.854,0.854 0 0 0 0.752,-1.268 c -0.494,-1.232 -1.165,-3.04900002 -1.394,-3.54100002 a 1.672,1.672 0 0 0 -0.383,-0.044 c -18.057,-0.41 -36.129,-0.08 -54.2010001,-0.08 -0.641,0.015 -1.025,1.84000002 -1.82799998,3.62800002 -0.465,1.027 1.01699998,1.29 1.74699998,1.305 0.074,0 0.236,0.008 0.236,0.008 z"
     id="path2"
     inkscape:connector-curvature="0"
     style="fill:#f8f8f8;fill-rule:evenodd" />
</svg>
