<svg height="81" width="113" xmlns="http://www.w3.org/2000/svg"><path d="m111.98037 72.996c-.989 3.476-4.195 7.504-11.224 7.504h-89.120003c-6.2779994 0-9.7659994-4.144-10.75599946-7.62-1.02-3.584-.171-9.492 4.53300006-12.267l47.6689994-27.948v-2.949c0-2.948-5.218-3.648-7.825-8.099-1.535-2.619-1.928-4.915-1.928-7.4 0-3.295 3.063-13.71699995 13.725-13.71699995 9.863 0 14.188 8.31499995 14.188 13.05499995 0 5.016-7.077 6.601-7.587.357-.325-3.982-3.405-5.723-6.545-5.723-1.87 0-6.065 1.503-6.065 6.186 0 0-.34 3.988 3.458 5.838 0 0 5.867 2.335 5.867 7.711v4.741l47.189003 27.843c5.441 3.353 5.441 8.903 4.421 12.488zm-9.317-6.172-46.233003-27.012-46.4769994 27.131c-2.867 1.792-1.075 5.852 1.8239994 5.739h89.093003c3.107-.006 4.66-3.828 1.793-5.858z" fill="#fff" fill-rule="evenodd"/></svg>