<?xml version="1.0" encoding="UTF-8" standalone="no"?>
<svg
   xmlns:dc="http://purl.org/dc/elements/1.1/"
   xmlns:cc="http://creativecommons.org/ns#"
   xmlns:rdf="http://www.w3.org/1999/02/22-rdf-syntax-ns#"
   xmlns:svg="http://www.w3.org/2000/svg"
   xmlns="http://www.w3.org/2000/svg"
   xmlns:sodipodi="http://sodipodi.sourceforge.net/DTD/sodipodi-0.dtd"
   xmlns:inkscape="http://www.inkscape.org/namespaces/inkscape"
   width="113"
   height="81"
   version="1.1"
   id="svg4"
   sodipodi:docname="fashion.svg"
   inkscape:version="0.92.3 (2405546, 2018-03-11)">
  <metadata
     id="metadata10">
    <rdf:RDF>
      <cc:Work
         rdf:about="">
        <dc:format>image/svg+xml</dc:format>
        <dc:type
           rdf:resource="http://purl.org/dc/dcmitype/StillImage" />
        <dc:title></dc:title>
      </cc:Work>
    </rdf:RDF>
  </metadata>
  <defs
     id="defs8" />
  <sodipodi:namedview
     pagecolor="#ffffff"
     bordercolor="#666666"
     borderopacity="1"
     objecttolerance="10"
     gridtolerance="10"
     guidetolerance="10"
     inkscape:pageopacity="0"
     inkscape:pageshadow="2"
     inkscape:window-width="6400"
     inkscape:window-height="3467"
     id="namedview6"
     showgrid="false"
     inkscape:pagecheckerboard="true"
     fit-margin-top="0"
     fit-margin-left="0"
     fit-margin-right="0"
     fit-margin-bottom="0"
     units="px"
     inkscape:zoom="2.2126742"
     inkscape:cx="-90.967104"
     inkscape:cy="22.82936"
     inkscape:window-x="6384"
     inkscape:window-y="-16"
     inkscape:window-maximized="1"
     inkscape:current-layer="svg4" />
  <path
     d="m 111.98037,72.996 c -0.989,3.476 -4.195,7.504 -11.224,7.504 H 11.636367 c -6.2779994,0 -9.7659994,-4.144 -10.75599946,-7.62 -1.02,-3.584 -0.171,-9.492 4.53300006,-12.267 L 53.082367,32.665 v -2.949 c 0,-2.948 -5.218,-3.648 -7.825,-8.099 -1.535,-2.619 -1.928,-4.915 -1.928,-7.4 0,-3.295 3.063,-13.71699995 13.725,-13.71699995 9.863,0 14.188,8.31499995 14.188,13.05499995 0,5.016 -7.077,6.601 -7.587,0.357 -0.325,-3.982 -3.405,-5.723 -6.545,-5.723 -1.87,0 -6.065,1.503 -6.065,6.186 0,0 -0.34,3.988 3.458,5.838 0,0 5.867,2.335 5.867,7.711 v 4.741 l 47.189003,27.843 c 5.441,3.353 5.441,8.903 4.421,12.488 z m -9.317,-6.172 L 56.430367,39.812 9.9533676,66.943 c -2.867,1.792 -1.075,5.852 1.8239994,5.739 h 89.093003 c 3.107,-0.006 4.66,-3.828 1.793,-5.858 z"
     id="path2"
     inkscape:connector-curvature="0"
     style="fill:#ffffff;fill-rule:evenodd" />
</svg>
