<?xml version="1.0" encoding="UTF-8" standalone="no"?>
<svg
   xmlns:dc="http://purl.org/dc/elements/1.1/"
   xmlns:cc="http://creativecommons.org/ns#"
   xmlns:rdf="http://www.w3.org/1999/02/22-rdf-syntax-ns#"
   xmlns:svg="http://www.w3.org/2000/svg"
   xmlns="http://www.w3.org/2000/svg"
   xmlns:sodipodi="http://sodipodi.sourceforge.net/DTD/sodipodi-0.dtd"
   xmlns:inkscape="http://www.inkscape.org/namespaces/inkscape"
   width="98"
   height="66"
   version="1.1"
   id="svg4"
   sodipodi:docname="food.svg"
   inkscape:version="0.92.3 (2405546, 2018-03-11)">
  <metadata
     id="metadata10">
    <rdf:RDF>
      <cc:Work
         rdf:about="">
        <dc:format>image/svg+xml</dc:format>
        <dc:type
           rdf:resource="http://purl.org/dc/dcmitype/StillImage" />
        <dc:title></dc:title>
      </cc:Work>
    </rdf:RDF>
  </metadata>
  <defs
     id="defs8" />
  <sodipodi:namedview
     pagecolor="#ffffff"
     bordercolor="#666666"
     borderopacity="1"
     objecttolerance="10"
     gridtolerance="10"
     guidetolerance="10"
     inkscape:pageopacity="0"
     inkscape:pageshadow="2"
     inkscape:window-width="6400"
     inkscape:window-height="3467"
     id="namedview6"
     showgrid="false"
     fit-margin-top="0"
     fit-margin-left="0"
     fit-margin-right="0"
     fit-margin-bottom="0"
     inkscape:pagecheckerboard="true"
     inkscape:zoom="10.728858"
     inkscape:cx="22.082478"
     inkscape:cy="20.110232"
     inkscape:window-x="6384"
     inkscape:window-y="-16"
     inkscape:window-maximized="1"
     inkscape:current-layer="svg4" />
  <path
     d="m 36.2355,0.01550012 c -15.316,0 -30.633,7.61199998 -30.633,20.29799988 v 10.149 h 86.794 v -10.149 c 0,-12.6859999 -15.316,-20.29799989 -30.633,-20.29799989 z m 2.553,5.07399998 a 2.54,2.54 0 0 1 2.553,2.538 2.54,2.54 0 0 1 -2.553,2.5369999 2.54,2.54 0 0 1 -2.553,-2.5369999 2.54,2.54 0 0 1 2.553,-2.538 z m 20.422,0 a 2.54,2.54 0 0 1 2.553,2.538 2.54,2.54 0 0 1 -2.553,2.5369999 2.54,2.54 0 0 1 -2.553,-2.5369999 2.54,2.54 0 0 1 2.553,-2.538 z M 28.5775,15.2395 a 2.54,2.54 0 0 1 2.553,2.537 2.54,2.54 0 0 1 -2.553,2.537 2.54,2.54 0 0 1 -2.553,-2.537 2.54,2.54 0 0 1 2.553,-2.537 z m 20.422,0 a 2.54,2.54 0 0 1 2.553,2.537 2.54,2.54 0 0 1 -2.553,2.537 2.54,2.54 0 0 1 -2.553,-2.537 2.54,2.54 0 0 1 2.553,-2.537 z m 20.422,0 a 2.54,2.54 0 0 1 2.553,2.537 2.54,2.54 0 0 1 -2.553,2.537 2.54,2.54 0 0 1 -2.553,-2.537 2.54,2.54 0 0 1 2.553,-2.537 z m -63.819,20.298 c -2.553,0 -5.105,2.537 -5.105,5.074 0,2.537 2.552,5.075 5.105,5.075 h 86.794 c 2.553,0 5.106,-2.538 5.106,-5.075 0,-2.537 -2.553,-5.074 -5.106,-5.074 z m 0,15.223 v 5.075 c 0,5.075 5.106,10.149 10.211,10.149 h 66.372 c 5.105,0 10.211,-5.074 10.211,-10.149 v -5.075 z"
     id="path2"
     style="fill:#ffffff;fill-rule:evenodd"
     inkscape:connector-curvature="0" />
</svg>
