<?xml version="1.0" encoding="UTF-8" standalone="no"?>
<svg
   xmlns:dc="http://purl.org/dc/elements/1.1/"
   xmlns:cc="http://creativecommons.org/ns#"
   xmlns:rdf="http://www.w3.org/1999/02/22-rdf-syntax-ns#"
   xmlns:svg="http://www.w3.org/2000/svg"
   xmlns="http://www.w3.org/2000/svg"
   xmlns:sodipodi="http://sodipodi.sourceforge.net/DTD/sodipodi-0.dtd"
   xmlns:inkscape="http://www.inkscape.org/namespaces/inkscape"
   width="86"
   height="86"
   version="1.1"
   id="svg4"
   sodipodi:docname="fun.svg"
   inkscape:version="0.92.3 (2405546, 2018-03-11)">
  <metadata
     id="metadata10">
    <rdf:RDF>
      <cc:Work
         rdf:about="">
        <dc:format>image/svg+xml</dc:format>
        <dc:type
           rdf:resource="http://purl.org/dc/dcmitype/StillImage" />
        <dc:title></dc:title>
      </cc:Work>
    </rdf:RDF>
  </metadata>
  <defs
     id="defs8" />
  <sodipodi:namedview
     pagecolor="#ffffff"
     bordercolor="#666666"
     borderopacity="1"
     objecttolerance="10"
     gridtolerance="10"
     guidetolerance="10"
     inkscape:pageopacity="0"
     inkscape:pageshadow="2"
     inkscape:window-width="6400"
     inkscape:window-height="3467"
     id="namedview6"
     showgrid="false"
     inkscape:pagecheckerboard="true"
     fit-margin-top="0"
     fit-margin-left="0"
     fit-margin-right="0"
     fit-margin-bottom="0"
     units="px"
     inkscape:zoom="5.8890197"
     inkscape:cx="30.249512"
     inkscape:cy="-21.912695"
     inkscape:window-x="6384"
     inkscape:window-y="-16"
     inkscape:window-maximized="1"
     inkscape:current-layer="svg4" />
  <path
     d="M 49.071,0.4999998 H 36.929 C 9.607,0.4999998 0.5,9.6070002 0.5,36.929 V 49.071 C 0.5,76.393 9.607,85.5 36.929,85.5 H 49.071 C 76.393,85.5 85.5,76.393 85.5,49.071 V 36.929 C 85.5,9.6070002 76.393,0.4999998 49.071,0.4999998 Z M 21.75,33.893 a 6.0725,6.0725 0 1 1 12.145,0 6.0725,6.0725 0 0 1 -12.145,0 z M 43,62.719 C 30.857,62.705 25.847,58.143 25.523,57.949 l 1.56,-2.603 c 0.073,0.043 5.292,4.324 15.917,4.337 10.625,0.014 15.844,-4.294 15.917,-4.337 l 1.561,2.603 C 60.153,58.143 55.143,62.732 43,62.719 Z M 58.179,39.964 a 6.072,6.072 0 1 1 0,-12.144 6.072,6.072 0 0 1 0,12.144 z"
     id="path2"
     inkscape:connector-curvature="0"
     style="fill:#ffffff;fill-rule:evenodd" />
</svg>
