<?xml version="1.0" encoding="UTF-8" standalone="no"?>
<svg
   xmlns:dc="http://purl.org/dc/elements/1.1/"
   xmlns:cc="http://creativecommons.org/ns#"
   xmlns:rdf="http://www.w3.org/1999/02/22-rdf-syntax-ns#"
   xmlns:svg="http://www.w3.org/2000/svg"
   xmlns="http://www.w3.org/2000/svg"
   xmlns:sodipodi="http://sodipodi.sourceforge.net/DTD/sodipodi-0.dtd"
   xmlns:inkscape="http://www.inkscape.org/namespaces/inkscape"
   width="84"
   height="82"
   version="1.1"
   id="svg4"
   sodipodi:docname="services.svg"
   inkscape:version="0.92.3 (2405546, 2018-03-11)">
  <metadata
     id="metadata10">
    <rdf:RDF>
      <cc:Work
         rdf:about="">
        <dc:format>image/svg+xml</dc:format>
        <dc:type
           rdf:resource="http://purl.org/dc/dcmitype/StillImage" />
        <dc:title></dc:title>
      </cc:Work>
    </rdf:RDF>
  </metadata>
  <defs
     id="defs8" />
  <sodipodi:namedview
     pagecolor="#ffffff"
     bordercolor="#666666"
     borderopacity="1"
     objecttolerance="10"
     gridtolerance="10"
     guidetolerance="10"
     inkscape:pageopacity="0"
     inkscape:pageshadow="2"
     inkscape:window-width="6400"
     inkscape:window-height="3467"
     id="namedview6"
     showgrid="false"
     units="px"
     inkscape:pagecheckerboard="true"
     fit-margin-top="0"
     fit-margin-left="0"
     fit-margin-right="0"
     fit-margin-bottom="0"
     inkscape:zoom="2.1848029"
     inkscape:cx="55.992012"
     inkscape:cy="23.10004"
     inkscape:window-x="6384"
     inkscape:window-y="-16"
     inkscape:window-maximized="1"
     inkscape:current-layer="svg4" />
  <path
     d="M 79.987322,35.72475 H 4.0183221 c -4.50200008,0 -5.354,-2.345 -1.88,-5.229 L 35.696322,2.65175 c 3.469,-2.86999999 9.135,-2.86999999 12.604,0 l 33.564,27.844 c 3.468,2.884 2.621,5.229 -1.877,5.229 z m -37.989,-19.548 a 6.375,6.375 0 0 0 -6.372,6.382 c 0,3.527 2.852,6.392 6.372,6.392 3.529,0 6.373,-2.865 6.373,-6.392 a 6.37,6.37 0 0 0 -6.373,-6.382 z m -33.5939999,55.043 a 1.636,1.636 0 0 1 -1.643,-1.637 v -28.223 c 0,-0.9 0.731,-1.637 1.643,-1.637 h 6.2709999 c 0.907,0 1.644,0.737 1.644,1.637 v 28.223 a 1.64,1.64 0 0 1 -1.644,1.637 z m 20.3009999,0 a 1.633,1.633 0 0 1 -1.628,-1.637 v -28.223 c 0,-0.9 0.731,-1.637 1.628,-1.637 h 6.286 c 0.898,0 1.634,0.737 1.634,1.637 v 28.223 c 0,0.905 -0.736,1.637 -1.634,1.637 z m 20.311,0 c -0.909,0 -1.64,-0.732 -1.64,-1.637 v -28.223 c 0,-0.9 0.731,-1.637 1.64,-1.637 h 6.276 c 0.907,0 1.638,0.737 1.638,1.637 v 28.223 c 0,0.905 -0.731,1.637 -1.638,1.637 z m 20.299,0 a 1.634,1.634 0 0 1 -1.632,-1.637 v -28.223 c 0,-0.9 0.731,-1.637 1.632,-1.637 h 6.287 c 0.897,0 1.638,0.737 1.638,1.637 v 28.223 c 0,0.905 -0.74,1.637 -1.638,1.637 z m -66.6889999,2.748 H 81.369322 c 0.907,0 1.634,0.733 1.634,1.639 v 4.254 c 0,0.909 -0.727,1.64 -1.634,1.64 H 2.6263221 a 1.642,1.642 0 0 1 -1.63700008,-1.64 v -4.254 c 0,-0.906 0.74100008,-1.639 1.63700008,-1.639 z"
     id="path2"
     inkscape:connector-curvature="0"
     style="fill:#ffffff;fill-rule:evenodd" />
</svg>
