<?xml version="1.0" encoding="UTF-8" standalone="no"?>
<svg
   xmlns:dc="http://purl.org/dc/elements/1.1/"
   xmlns:cc="http://creativecommons.org/ns#"
   xmlns:rdf="http://www.w3.org/1999/02/22-rdf-syntax-ns#"
   xmlns:svg="http://www.w3.org/2000/svg"
   xmlns="http://www.w3.org/2000/svg"
   xmlns:sodipodi="http://sodipodi.sourceforge.net/DTD/sodipodi-0.dtd"
   xmlns:inkscape="http://www.inkscape.org/namespaces/inkscape"
   width="90"
   height="90"
   version="1.1"
   id="svg4"
   sodipodi:docname="travel.svg"
   inkscape:version="0.92.3 (2405546, 2018-03-11)">
  <metadata
     id="metadata10">
    <rdf:RDF>
      <cc:Work
         rdf:about="">
        <dc:format>image/svg+xml</dc:format>
        <dc:type
           rdf:resource="http://purl.org/dc/dcmitype/StillImage" />
        <dc:title></dc:title>
      </cc:Work>
    </rdf:RDF>
  </metadata>
  <defs
     id="defs8" />
  <sodipodi:namedview
     pagecolor="#ffffff"
     bordercolor="#666666"
     borderopacity="1"
     objecttolerance="10"
     gridtolerance="10"
     guidetolerance="10"
     inkscape:pageopacity="0"
     inkscape:pageshadow="2"
     inkscape:window-width="6400"
     inkscape:window-height="3467"
     id="namedview6"
     showgrid="false"
     units="px"
     fit-margin-top="0"
     fit-margin-left="0"
     fit-margin-right="0"
     fit-margin-bottom="0"
     inkscape:pagecheckerboard="true"
     inkscape:zoom="16.093213"
     inkscape:cx="46.827724"
     inkscape:cy="21.457588"
     inkscape:window-x="6384"
     inkscape:window-y="-16"
     inkscape:window-maximized="1"
     inkscape:current-layer="svg4" />
  <path
     d="m 69.105,89.97397 c -0.096,-0.151 -4.746,-9.109 -10.333,-19.905 -5.586,-10.797 -10.244,-19.718 -10.35,-19.827 -0.124,-0.126 -3.081,2.698 -8.262,7.892 -7.569,7.587 -8.068,8.132 -8.065,8.797 10e-4,0.39 0.312,3.259 0.691,6.376 l 0.688,5.666 -3.271,3.294 -3.27,3.294 -3.796,-7.245 -3.796,-7.244 -7.143,-3.74 c -3.929,-2.056 -7.145,-3.786 -7.148,-3.843 -0.002,-0.056 1.441,-1.549 3.206,-3.317 l 3.21,-3.214 6.297,0.767 6.296,0.766 8.156,-8.175 c 6.36,-6.374 8.094,-8.219 7.874,-8.376 -0.155,-0.112 -9.239,-4.938 -20.186,-10.725 L 0,20.69297 l 4.11,-4.122 4.11,-4.121 24.569,6.528 24.568,6.529 11.234,-11.242 C 76.465,6.3859705 80.097,2.8869705 80.733,2.5669705 81.32,2.2719704 82.145,2.0769704 83.062,2.0169704 c 1.805,-0.118 3.148,0.4110001 4.342,1.7100001 1.11,1.208 1.47,2.118 1.465,3.709 -0.007,2.457 0.131,2.29 -12.484,14.9749995 l -11.372,11.434 4.912,19.023 c 2.702,10.462 5.501,21.311 6.22,24.108 l 1.309,5.087 -4.087,4.093 c -3.036,3.042 -4.131,4.023 -4.262,3.818 z"
     id="path2"
     style="fill:#ffffff;fill-rule:evenodd"
     inkscape:connector-curvature="0" />
</svg>
