<svg height="90" width="90" xmlns="http://www.w3.org/2000/svg"><path d="m69.105 89.97397c-.096-.151-4.746-9.109-10.333-19.905-5.586-10.797-10.244-19.718-10.35-19.827-.124-.126-3.081 2.698-8.262 7.892-7.569 7.587-8.068 8.132-8.065 8.797.001.39.312 3.259.691 6.376l.688 5.666-3.271 3.294-3.27 3.294-3.796-7.245-3.796-7.244-7.143-3.74c-3.929-2.056-7.145-3.786-7.148-3.843-.002-.056 1.441-1.549 3.206-3.317l3.21-3.214 6.297.767 6.296.766 8.156-8.175c6.36-6.374 8.094-8.219 7.874-8.376-.155-.112-9.239-4.938-20.186-10.725l-19.903-10.522 4.11-4.122 4.11-4.121 24.569 6.528 24.568 6.529 11.234-11.242c7.874-7.8789995 11.506-11.3779995 12.142-11.6979995.587-.2950001 1.412-.4900001 2.329-.5500001 1.805-.118 3.148.4110001 4.342 1.7100001 1.11 1.208 1.47 2.118 1.465 3.709-.007 2.457.131 2.29-12.484 14.9749995l-11.372 11.434 4.912 19.023c2.702 10.462 5.501 21.311 6.22 24.108l1.309 5.087-4.087 4.093c-3.036 3.042-4.131 4.023-4.262 3.818z" fill="#fff" fill-rule="evenodd"/></svg>