<svg height="24" width="24" xmlns="http://www.w3.org/2000/svg">
	<path d="m23.339284 20.159351-8.159154-8.159154 8.159154-8.159548c.880955-.8809541.880955-2.2989795 0-3.17993365-.880954-.88095413-2.298979-.88095413-3.179933 0l-8.159154 8.15915415-8.1595478-8.15915415c-.8809541-.88095413-2.2989795-.88095413-3.1799336 0-.88095413.88095415-.88095413 2.29897955 0 3.17993365l8.1591541 8.159548-8.1591541 8.159154c-.88095413.880954-.88095413 2.298979 0 3.179933.8809541.880955 2.2989795.880955 3.1799336 0l8.1595478-8.159154 8.159154 8.159154c.880954.880955 2.298979.880955 3.179933 0 .874659-.880954.874659-2.305274 0-3.179933z"
	      fill="#fff" fill-rule="evenodd" stroke-width=".393459"/>
</svg>