<svg height="39.999008" width="56" xmlns="http://www.w3.org/2000/svg"><path d="m48.329 20.728-4.35-4.067a52.648 52.648 0 0 0 -4.159-3.427l-4.79-4.414c-.651-.47-1.54-.711-2.42-.711-.748 0-1.489.174-2.072.528l-3.299 2.119a2.885 2.885 0 0 1 -1.496.409c-.926 0-1.852-.419-2.416-1.186l-.413-.56a2.652 2.652 0 0 1 .594-3.739l6.956-4.906c.712-.507 1.728-.774 2.715-.774.686 0 1.359.13 1.906.398l4.496 2.2c.668.326 1.627.544 1.627.544l2.87-2.833 11.922 11.478zm-27.746-13.603a4.514 4.514 0 0 0 .831 3.413l.413.56c.898 1.217 2.362 1.944 3.915 1.944.878 0 1.729-.235 2.46-.68l.02-.012.02-.013 3.276-2.103c.266-.156.672-.248 1.092-.248.477 0 .949.118 1.259.31l4.69 4.321.081.075.089.064a49.701 49.701 0 0 1 2.72 2.169l6.803 6.355a2.73 2.73 0 0 1 .141 3.83l-.474.511a2.686 2.686 0 0 1 -3.743.189l.758.708a2.73 2.73 0 0 1 .14 3.829l-.472.51a2.69 2.69 0 0 1 -3.806.142l-.897-.84a2.726 2.726 0 0 1 .125 3.81l-.472.509a2.692 2.692 0 0 1 -3.808.143l-3.49-3.256a2.715 2.715 0 0 1 .085 3.754l-.472.511a2.687 2.687 0 0 1 -3.805.14l-1.38-1.291c.96-1.776.669-4.048-.853-5.508l-.507-.485a4.519 4.519 0 0 0 -2.56-1.224 4.568 4.568 0 0 0 -1.344-2.526l-.502-.482a4.53 4.53 0 0 0 -1.423-.926c.034-.247.049-.5.043-.755a4.562 4.562 0 0 0 -1.412-3.211l-.498-.479a4.518 4.518 0 0 0 -2.702-1.242 4.55 4.55 0 0 0 -1.307-2.335l-.5-.481a4.53 4.53 0 0 0 -3.148-1.265 4.57 4.57 0 0 0 -3.301 1.418l-1.082 1.141-5.586-5.651 12.373-12.363 3.594 3.367s1.53.007 2.624-.46c.471-.2 1.94-.849 1.94-.849 1.325-.572 3.387-.546 4.656.04l-2.751 1.941a4.498 4.498 0 0 0 -1.853 2.981zm-12.564 11.149a2.676 2.676 0 0 1 1.949-.836c.669 0 1.339.247 1.859.745l.501.481c1.008.967 1.092 2.54.25 3.622a2.69 2.69 0 0 1 3.757-.046l.502.482a2.726 2.726 0 0 1 .091 3.83l-1.009 1.063a2.696 2.696 0 0 1 1.861-.744c.665 0 1.33.246 1.846.741l.503.483a2.726 2.726 0 0 1 .091 3.828l.008.015a2.672 2.672 0 0 1 1.949-.836c.669 0 1.339.247 1.858.745l.505.482a2.731 2.731 0 0 1 .091 3.83l-2.849 3.003a2.676 2.676 0 0 1 -1.95.837 2.674 2.674 0 0 1 -1.857-.745l-.503-.482a2.727 2.727 0 0 1 -.091-3.83l-1.672 1.739a2.677 2.677 0 0 1 -1.95.836 2.676 2.676 0 0 1 -1.857-.744l-.504-.483c-1.039-.996-1.1-2.639-.175-3.721l-1.04 1.098a2.677 2.677 0 0 1 -1.95.836 2.677 2.677 0 0 1 -1.857-.746l-.505-.481a2.73 2.73 0 0 1 -.09-3.83l1.332-1.405a2.703 2.703 0 0 1 -1.717.615 2.654 2.654 0 0 1 -1.842-.739l-.501-.481a2.724 2.724 0 0 1 -.092-3.829z" fill="#fff" fill-rule="evenodd"/></svg>