<svg height="24" width="24" xmlns="http://www.w3.org/2000/svg">
	<path d="m0 15.6h9.4286138v-2.154104c-1.2891016-.883241-2.1427729-2.408896-2.1427729-4.145896 0-1.736689.8536713-3.2620342 2.1427729-4.1458965v-2.1541035h-9.4286138zm3.8572276-8.55c1.1835787 0 2.1427724 1.007379 2.1427724 2.25 0 1.242931-.9591938 2.25-2.1427724 2.25-1.1835788 0-2.1427725-1.007069-2.1427725-2.25 0-1.242621.9591937-2.25 2.1427725-2.25zm-3.8572276 10.35h9.4286138v-.9h-9.4286138zm3.8572276-6.75c.7102064 0 1.2855448-.604241 1.2855448-1.35s-.5753384-1.35-1.2855448-1.35c-.7102065 0-1.2858413.604241-1.2858413 1.35s.5756348 1.35 1.2858413 1.35zm4.2855449-1.35c0 1.197931.498567 2.271104 1.2858413 3.012827v-6.0253445c-.7872743.7414145-1.2858413 1.8145865-1.2858413 3.0125175zm7.7144545 0c0-1.197931-.498567-2.271103-1.285841-3.0125175v6.0253445c.787274-.741723 1.285841-1.814896 1.285841-3.012827zm-15.857227 9.9h9.4286138v-.9h-9.4286138zm0 1.8h9.4286138v-.9h-9.4286138zm14.571386-18v2.1541035c1.289102.8838623 2.143069 2.4092075 2.143069 4.1458965 0 1.737-.853967 3.262655-2.143069 4.145896v2.154104h9.428614v-12.6zm5.571683 8.55c-1.183579 0-2.143069-1.007069-2.143069-2.25 0-1.242621.95949-2.25 2.143069-2.25 1.183578 0 2.142772 1.007379 2.142772 2.25 0 1.242931-.959194 2.25-2.142772 2.25zm-5.571683 5.85h9.428614v-.9h-9.428614zm-4.285545 3.6h3.428614v-.9h-3.428614zm4.285545 0h9.428614v-.9h-9.428614zm5.571683-13.05c-.710207 0-1.285842.604241-1.285842 1.35s.575635 1.35 1.285842 1.35c.710206 0 1.285545-.604241 1.285545-1.35s-.575339-1.35-1.285545-1.35zm-5.571683 11.25h9.428614v-.9h-9.428614zm-4.285545 0h3.428614v-.9h-3.428614zm0-1.8h3.428614v-.9h-3.428614zm0-13.5v.792621.9834825 7.2481035.983483.79231.9h3.428614v-.9-.79231-.983483-7.2481035-.9834825-.792621-.9h-3.428614z"
	      fill="#fff" fill-rule="evenodd" stroke-width=".303299"/>
</svg>