<svg height="24" width="24" xmlns="http://www.w3.org/2000/svg">
	<path d="m23.836356 6.857053-3.310148-6.620211-.003791.002211c-.070765-.140211-.211978-.239053-.379413-.239053h-6.428853l.761668 6.857053zm-13.550822 4.285894h3.428617v-3.428526l-.857076-7.714421h-1.71415l-.857391 7.714421zm4.286007-3.428526v3.428526c0 .857053-.85739.857053-.85739.857053h-3.428617c-.8570753 0-.8570753-.857053-.8570753-.857053v-3.428526h-9.4284587v15.428526c0 .473369.38383573.857053.85707517.857053h22.28584983c.473239 0 .857075-.383684.857075-.857053v-15.428526zm-5.5714619 13.714105h-6.0001581c-.2369356 0-.4283796-.191684-.4283796-.428526 0-.236526.191444-.428526.4283796-.428526h6.0001581c.2369356 0 .4283796.192.4283796.428526 0 .236842-.191444.428526-.4283796.428526zm1.7141499-2.571473h-7.714308c-.2369356 0-.4283796-.191685-.4283796-.428527s.191444-.428526.4283796-.428526h7.714308c.236936 0 .428696.191684.428696.428526s-.19176.428527-.428696.428527zm10.71423 1.285894c0 .236842-.19176.428527-.42838.428527-.236936 0-.428695-.191685-.428695-.428527v-.679894l-1.839569 1.840105c-.077714.077368-.18481.125368-.303277.125368-.236936 0-.428696-.191684-.428696-.428526 0-.118105.048336-.225158.125734-.303158l1.839884-1.839789h-.679847c-.236619 0-.42838-.191685-.42838-.428527s.191761-.428526.42838-.428526h1.714466c.23662 0 .42838.191684.42838.428526zm-11.142925-20.142947h-6.4282218c-.1677504 0-.3089641.098842-.3797289.239053l-.0037909-.002211-3.31014885 6.620211h9.36022125z"
	      fill="#fff" fill-rule="evenodd" stroke-width=".315852"/>
</svg>