<svg height="24" width="24" xmlns="http://www.w3.org/2000/svg">
	<path d="m13.683841 22.31733v-8.63466h8.63466c.931499 0 1.681499-.75 1.681499-1.68267 0-.932084-.75-1.68267-1.681499-1.68267h-8.63466v-8.6346602c0-.9326698-.751171-1.6826698-1.683256-1.6826698-.932084 0-1.682669.75-1.682669 1.6826698v8.6346602l-8.6346607.000586c-.93266982-.000586-1.6832553.75-1.6832553 1.682084 0 .93267.75058548 1.68267 1.6832553 1.68267h8.6346607v8.63466c0 .93267.750585 1.68267 1.682669 1.68267.928572-.002927 1.683256-.75644 1.683256-1.68267z"
	      fill="#fff" fill-rule="evenodd" stroke-width=".58548"/>
</svg>