<svg height="28" width="29" xmlns="http://www.w3.org/2000/svg"><path d="m24.167-.004h-19.335c-2.658 0-4.833 2.211-4.833 4.915v12.289c0 2.703 2.175 4.915 4.833 4.915v3.688c0 1.106 1.33 1.597 2.056.859l4.471-4.547h12.808c2.658 0 4.833-2.212 4.833-4.915v-12.289c0-2.704-2.175-4.915-4.833-4.915zm-7.251 14.745h-7.249c-.724 0-1.207-.491-1.207-1.228s.483-1.229 1.207-1.229h7.249c.725 0 1.209.492 1.209 1.229s-.484 1.228-1.209 1.228zm2.417-4.915h-9.666c-.724 0-1.207-.491-1.207-1.228 0-.738.483-1.229 1.207-1.229h9.666c.726 0 1.209.491 1.209 1.229 0 .737-.483 1.228-1.209 1.228z" fill="#fff" fill-rule="evenodd"/></svg>