<svg height="55.811604" width="55.81036" xmlns="http://www.w3.org/2000/svg"><path d="m55.221 3.4366024-2.847-2.84700002a2.012 2.012 0 0 0 -2.846 0l-29.176 29.18399962-1.424 7.12 7.116-1.424 26.33-26.3379996-5.692-5.695 1.423-1.424 5.693 5.696 1.423-1.424a2.015 2.015 0 0 0 0-2.848zm-10.378 16.5199996a1 1 0 0 0 -.704.291l-16.739 16.73-11.123 2.565 2.567-11.117 16.739-16.728a.997.997 0 0 0 -.705-1.7009996h-32.885c-1.1 0-1.993.8919996-1.993 1.9919996v41.831c0 1.1.893 1.992 1.993 1.992h41.854c1.1 0 1.993-.892 1.993-1.992v-32.867a.996.996 0 0 0 -.997-.996z" fill="#fff" fill-rule="evenodd"/></svg>