<svg height="32" viewBox="0 0 31.999999 32.000001" width="32" xmlns="http://www.w3.org/2000/svg"><path d="m7.7333585 27.654802c5.6082795-2.203361 13.3462875-4.335641 21.2972695-6.254697 2.48468-.639682 3.19459-2.203355 2.910626-4.335639-.174863-1.415026-.26967-2.838819-.283964-4.264563 0-.923985-.496936-1.137214-1.5618-1.563672-4.046481-1.5636736-9.725753-4.1224106-13.630252-7.1786796-.851892-.71076-1.277837-.71076-1.632791.2843-.354954 1.13722-.7809 3.198427-.85189 4.691022-.141982 1.8479786.567927 3.2694986 2.3427 4.1934866 1.561799.852914 4.401434 1.990132 7.808998 2.985193-9.725753 3.695957-18.1026785 7.178684-21.4392523 8.813433-2.91062634 1.421519-2.98161724 2.558738-2.41368994 2.771969.7099089.2843 2.20071754.426452 2.91062594.568604 1.3488285.213231 2.6266648 0 4.5434198-.710757z" fill="#d7befc" fill-rule="evenodd" stroke-width=".101476"/></svg>