<svg height="63.99802" width="90" xmlns="http://www.w3.org/2000/svg"><path d="m77.672 33.165-6.992-6.507c-1.745-1.622-4.751-4.089-6.683-5.484l-7.699-7.062c-1.045-.752-2.475-1.138-3.889-1.138-1.203 0-2.394.278-3.329.845l-5.304 3.39a4.647 4.647 0 0 1 -2.403.655c-1.488 0-2.976-.671-3.884-1.898l-.663-.896a4.228 4.228 0 0 1 .955-5.981l11.179-7.851c1.144-.81 2.777-1.238 4.363-1.238 1.103 0 2.185.208 3.064.636l7.226 3.52c1.072.522 2.614.871 2.614.871l4.613-4.533 19.16 18.365zm-44.591-21.765a7.197 7.197 0 0 0 1.334 5.461l.663.896c1.444 1.947 3.797 3.11 6.294 3.11a7.637 7.637 0 0 0 3.953-1.087l.032-.02.032-.02 5.264-3.365c.428-.25 1.08-.397 1.756-.397.766 0 1.525.188 2.023.496l7.538 6.914.13.119.143.103c1.203.868 2.888 2.213 4.371 3.469l10.934 10.17a4.354 4.354 0 0 1 .227 6.127l-.762.818c-1.59 1.716-4.267 1.834-6.016.302l1.219 1.132c1.743 1.622 1.844 4.38.224 6.127l-.758.816a4.337 4.337 0 0 1 -6.117.227l-1.441-1.343c1.717 1.627 1.81 4.359.2 6.095l-.758.815a4.34 4.34 0 0 1 -6.121.229l-5.609-5.21c1.644 1.63 1.724 4.295.137 6.007l-.758.818c-1.622 1.746-4.375 1.847-6.116.223l-2.217-2.065c1.543-2.842 1.074-6.478-1.37-8.813l-.816-.776a7.27 7.27 0 0 0 -4.115-1.958 7.302 7.302 0 0 0 -2.159-4.043l-.806-.771a7.314 7.314 0 0 0 -2.287-1.482c.054-.395.078-.8.068-1.208a7.288 7.288 0 0 0 -2.269-5.137l-.801-.767a7.27 7.27 0 0 0 -4.341-1.986 7.28 7.28 0 0 0 -2.101-3.737l-.805-.769a7.288 7.288 0 0 0 -5.058-2.023 7.36 7.36 0 0 0 -5.305 2.268l-1.739 1.825-8.978-9.041 19.885-19.781 5.776 5.387s2.459.011 4.218-.736c.756-.321 3.118-1.359 3.118-1.359 2.129-.914 5.442-.874 7.483.064l-4.422 3.107a7.183 7.183 0 0 0 -2.977 4.769zm-20.194 17.839a4.312 4.312 0 0 1 3.134-1.338c1.075 0 2.152.395 2.987 1.192l.805.769c1.62 1.547 1.754 4.065.402 5.796a4.327 4.327 0 0 1 3.063-1.262c1.071 0 2.143.394 2.975 1.188l.806.772a4.346 4.346 0 0 1 .146 6.127l-1.621 1.702a4.338 4.338 0 0 1 2.991-1.191 4.28 4.28 0 0 1 2.967 1.186l.809.771c1.721 1.643 1.787 4.401.146 6.126l.013.023a4.306 4.306 0 0 1 3.132-1.337c1.075 0 2.152.395 2.986 1.192l.811.771a4.354 4.354 0 0 1 .146 6.128l-4.578 4.806a4.31 4.31 0 0 1 -3.134 1.338 4.303 4.303 0 0 1 -2.985-1.192l-.809-.771a4.348 4.348 0 0 1 -.145-6.128l-2.687 2.782a4.313 4.313 0 0 1 -3.135 1.339 4.31 4.31 0 0 1 -2.984-1.192l-.81-.772c-1.67-1.593-1.767-4.222-.28-5.953l-1.672 1.756a4.31 4.31 0 0 1 -3.134 1.337 4.305 4.305 0 0 1 -2.984-1.192l-.812-.771a4.354 4.354 0 0 1 -.145-6.128l2.141-2.248a4.355 4.355 0 0 1 -2.76.984 4.272 4.272 0 0 1 -2.96-1.182l-.806-.77a4.346 4.346 0 0 1 -.148-6.126z" fill="#fff" fill-rule="evenodd"/></svg>