<svg xmlns="http://www.w3.org/2000/svg" width="3.422cm" height="3.422cm">
    <path fill="#FFF" fill-rule="evenodd" d="M94.75 89.446L70.373 64.685C75.704 57.906 78.9 49.31 78.9 39.956 78.9 18.078 61.435.338 39.898.338 18.36.338.895 18.078.895 39.956c0 21.877 17.465 39.618 39.003 39.618 9.208 0 17.671-3.247 24.345-8.661l24.376 24.761a4.297 4.297 0 0 0 6.131 0c1.689-1.716 1.689-4.513 0-6.228zM39.898 70.77c-16.754 0-30.336-13.796-30.336-30.814S23.144 9.142 39.898 9.142c16.753 0 30.335 13.796 30.335 30.814S56.651 70.77 39.898 70.77z"/>
</svg>
