<svg height="50" width="58" xmlns="http://www.w3.org/2000/svg"><path d="m34.524 13.889h-4.143v13.889l11.82 7.055 1.989-3.374-9.666-5.764zm-1.395-13.889c-13.74 0-24.843 11.195-24.843 25h-8.286l10.758 10.819.193.403 11.144-11.222h-8.285c0-10.736 8.658-19.444 19.333-19.444s19.333 8.708 19.333 19.444c0 10.737-8.658 19.445-19.333 19.445-5.345 0-10.164-2.195-13.658-5.709l-3.908 3.93c4.488 4.529 10.689 7.334 17.552 7.334 13.741 0 24.871-11.194 24.871-25 0-13.805-11.13-25-24.871-25" fill="#fff" fill-rule="evenodd"/></svg>