<svg height="47" width="70" xmlns="http://www.w3.org/2000/svg"><path d="m69.717 17.801.016-.012-13.75-17.317-.016.012a1.232 1.232 0 0 0 -.967-.484h-40c-.399 0-.738.197-.967.484l-.016-.012-13.75 17.317.016.012a1.207 1.207 0 0 0 -.283.752v25.973c0 1.366 1.119 2.474 2.5 2.474h65c1.381 0 2.5-1.108 2.5-2.474v-25.973c0-.288-.116-.541-.283-.752zm-22.217-.485h-1.25c-.691 0-1.25.554-1.25 1.237h-.087c-.616 4.879-4.814 8.658-9.913 8.658s-9.297-3.779-9.913-8.658h-.087c0-.683-.559-1.237-1.25-1.237h-19.928l11.786-14.842h38.784l11.786 14.842z" fill="#fff" fill-rule="evenodd"/></svg>