<svg xmlns="http://www.w3.org/2000/svg" width="97" height="97">
    <path d="M48.501,-0.009 C21.722,-0.009 0.013,21.709 0.013,48.500 C0.013,75.291 21.722,97.009 48.501,97.009 C75.280,97.009 96.988,75.291 96.988,48.500 C96.988,21.709 75.280,-0.009 48.501,-0.009 ZM51.137,69.824 C50.386,70.625 49.492,71.025 48.454,71.025 C47.415,71.025 46.520,70.625 45.771,69.824 C45.020,69.024 44.645,68.071 44.645,66.963 C44.645,65.855 45.020,64.901 45.771,64.101 C46.520,63.300 47.415,62.901 48.454,62.901 C49.492,62.901 50.386,63.300 51.137,64.101 C51.886,64.901 52.262,65.855 52.262,66.963 C52.262,68.071 51.886,69.024 51.137,69.824 ZM59.995,41.453 C59.571,42.622 58.976,43.720 58.206,44.746 L54.744,48.561 L54.166,49.114 C53.550,49.730 53.060,50.253 52.695,50.684 C52.329,51.115 52.040,51.567 51.829,52.038 C51.617,52.511 51.474,53.034 51.398,53.608 C51.320,54.183 51.281,54.900 51.281,55.761 L51.281,58.470 L45.743,58.470 L45.743,54.716 C45.743,53.608 45.819,52.684 45.973,51.946 C46.127,51.207 46.356,50.540 46.664,49.946 C46.972,49.351 47.386,48.776 47.906,48.222 C48.425,47.669 49.069,47.003 49.839,46.223 C50.454,45.607 51.070,44.981 51.685,44.345 C52.301,43.710 52.859,43.052 53.359,42.375 C53.858,41.699 54.273,40.981 54.599,40.222 C54.925,39.464 55.089,38.613 55.089,37.669 C55.089,36.725 54.925,35.852 54.599,35.051 C54.273,34.251 53.840,33.564 53.302,32.990 C52.762,32.415 52.118,31.965 51.367,31.635 C50.618,31.309 49.820,31.145 48.973,31.145 C47.089,31.145 45.558,31.781 44.386,33.052 C43.211,34.324 42.511,35.985 42.279,38.037 L36.394,37.422 C36.893,33.852 38.288,31.052 40.578,29.022 C42.866,26.990 45.704,25.974 49.089,25.974 C50.704,25.974 52.214,26.230 53.618,26.744 C55.022,27.257 56.244,27.996 57.283,28.959 C58.321,29.923 59.138,31.112 59.735,32.529 C60.332,33.943 60.629,35.554 60.629,37.361 C60.629,38.919 60.418,40.284 59.995,41.453 Z"
          fill="#fff"/>
</svg>