<svg height="44" width="48" xmlns="http://www.w3.org/2000/svg"><path d="m40 36.206266h-21.2l-7.4 7.236c-1.2 1.173-3.4.391-3.4-1.369v-5.867c-4.4 0-8-3.521-8-7.823v-19.5570012c0-4.303 3.6-7.8230001 8-7.8230001h32c4.4 0 8 3.5200001 8 7.8230001v19.5570012c0 4.302-3.6 7.823-8 7.823zm-9-23.196c-2.8 0-4.629 1.418-6.169 3.237.56.841.971 1.532 1.532 2.232 0 .14.174.122.174.262 1.261-1.82 2.503-2.931 4.463-2.931 2.38 0 4.2 1.82 4.2 4.2 0 2.316-1.884 4.2-4.2 4.2-1.377 0-2.279-.478-3.194-1.356-.914-.878-1.75-2.188-2.625-3.588s-1.789-2.89-3.062-4.112-2.996-2.144-5.119-2.144c-3.844 0-7 3.156-7 7 0 3.92 3.08 7 7 7 2.8 0 4.629-1.417 6.169-3.238-.56-.839-1.111-1.522-1.532-2.362 0 0-.035-.131-.175-.131-1.259 1.68-2.502 2.931-4.462 2.931-2.38 0-4.2-1.82-4.2-4.2 0-2.316 1.884-4.2 4.2-4.2 1.377 0 2.279.478 3.194 1.356.914.878 1.75 2.188 2.625 3.588s1.789 2.89 3.062 4.112c1.273 1.223 2.996 2.144 5.119 2.144 3.844 0 7-3.156 7-7 0-3.92-3.08-7-7-7z" fill="#fff" fill-rule="evenodd"/></svg>