<svg height="40" width="40.000027" xmlns="http://www.w3.org/2000/svg"><path d="m20.24993 38.503922c-.10195 0-.202179-.003-.302409-.0077h-.00043a2.4597057 2.4597057 0 0 1 -.197447.0077c-2.343991 0-3.848721-1.059506-5.303553-2.084598-1.004874-.707198-1.952536-1.37525-3.069685-1.560653a9.9412031 9.9412031 0 0 0 -1.6118423-.135503c-.9446509 0-1.6897034.145397-2.2338671.251218-.3303697.06453-.6155717.120017-.8323768.120017-.2262688 0-.4718953-.04861-.5785772-.411671a13.214358 13.214358 0 0 1 -.224118-.914109c-.1660451-.758388-.2843416-1.224691-.6030967-1.27373-3.7179498-.572125-4.78218762-1.352451-5.01921068-1.906079a.70547698.70547698 0 0 1 -.0576426-.237023.41812416.41812416 0 0 1 .35015748-.4349c5.715654-.937769 8.2786003-6.758384 8.384852-7.005301l.00903-.02022c.3501611-.706335.4185579-1.319756.2043338-1.822193-.3918839-.920992-1.6712062-1.325781-2.5182087-1.593346-.2069112-.065385-.4034984-.12733-.5583592-.187983-1.6897034-.665902-1.8303687-1.34901-1.7641227-1.697017.1135646-.593633.9093771-1.007025 1.5529097-1.007025.1763693 0 .3316603.03097.4624316.09206.7601084.354459 1.4449373.5347 2.0359894.5347.8168907 0 1.1735007-.341984 1.2169478-.387152-.0206481-.385435-.0464583-.788073-.0726986-1.203186-.1703468-2.692428-.3811296-6.0378497.473616-7.9478001 2.5620858-5.7242569 7.9955488-6.1686219 9.5996488-6.1686219l.703326-.0073.09507-.00043c1.607972 0 7.053049.445655 9.616856 6.1729239.855176 1.9108104.643533 5.2592441.472756 7.9495201l-.0069.117006c-.02366.374677-.04646.7386-.06539 1.087467.04087.0413.368655.35618 1.108976.384141h.00086c.562661-.02151 1.209205-.200029 1.918983-.531259.208202-.09679.439203-.117006.596215-.117006.240034 0 .48394.04603.685689.130341l.01248.0047c.573845.20304.950243.603957.957986 1.022512.0077.394464-.294666.987667-1.777028 1.571407-.154.06022-.350157.122167-.558359.187983-.847433.267996-2.126325.672354-2.518209 1.593346-.214224.502007-.145827 1.114998.2039 1.821765.0034.0069.0069.01333.0095.02065.106252.246917 2.667047 6.065812 8.384852 7.00444a.41855433.41855433 0 0 1 .350588.435331.70977867.70977867 0 0 1 -.0585.238314c-.236163.549756-1.29911 1.329222-5.018351 1.901777-.304129.04646-.421565.440923-.603096 1.268137-.06582.301119-.132492.596645-.224549.907657-.07915.270146-.248207.396185-.532119.396185h-.04603c-.197017 0-.477487-.03484-.832376-.104531-.629768-.122598-1.335675-.235732-2.233867-.235732-.524376 0-1.067249.0456-1.612704.135503-1.115858.185403-2.06309.852165-3.065813 1.558072-1.457843 1.027673-2.962143 2.087179-5.306994 2.087179z" fill="#fff" fill-rule="evenodd" stroke="#000" stroke-width=".430169"/></svg>