<svg height="86" width="86" xmlns="http://www.w3.org/2000/svg"><path d="m49.071.4999998h-12.142c-27.322 0-36.429 9.1070004-36.429 36.4290002v12.142c0 27.322 9.107 36.429 36.429 36.429h12.142c27.322 0 36.429-9.107 36.429-36.429v-12.142c0-27.3219998-9.107-36.4290002-36.429-36.4290002zm-27.321 33.3930002a6.0725 6.0725 0 1 1 12.145 0 6.0725 6.0725 0 0 1 -12.145 0zm21.25 28.826c-12.143-.014-17.153-4.576-17.477-4.77l1.56-2.603c.073.043 5.292 4.324 15.917 4.337 10.625.014 15.844-4.294 15.917-4.337l1.561 2.603c-.325.194-5.335 4.783-17.478 4.77zm15.179-22.755a6.072 6.072 0 1 1 0-12.144 6.072 6.072 0 0 1 0 12.144z" fill="#fff" fill-rule="evenodd"/></svg>