<svg height="40.042625" width="41.964451" xmlns="http://www.w3.org/2000/svg"><path d="m41.841019 1.9442454-8.345 30.1749996c-.471 1.702-.862 3.093-.871 3.09s-.016-.033-.018-.043c-.003-.011-1.363-.562-3.025-1.226l-5.475-2.195a463.676 463.676 0 0 0 -6.061-2.37l-.578-.222c-1.673-.636-2.035-2.212-.807-3.5l16.947-17.8439996c1.225-1.29 1.073-1.451-.336-.359l-21.436 16.6299996c-1.416 1.088-3.9380002 1.442-5.6060002.794l-4.935-1.921c-1.66800003-.652-1.73400003-1.853-.144-2.673l38.6580002-19.94199962c1.588-.82 2.502-.097 2.032 1.60600002zm-28.789 27.7099996 3.788 1.527c1.66.667 2.216 2.426 1.235 3.901 0 0-3.474 5.236-3.376 4.949.1-.295-3.415-8.626-3.415-8.628-.688-1.634.107-2.417 1.768-1.749z" fill="#a7a7a7" fill-rule="evenodd"/></svg>