<svg height="96" width="96" xmlns="http://www.w3.org/2000/svg"><path d="m93.996172 88.534492-24.220107-24.601636c5.296689-6.735369 8.472119-15.276045 8.472119-24.569841 0-21.737192-17.352593-39.36301471-38.750979-39.36301471-21.399379 0-38.75197337 17.62582271-38.75197337 39.36301471 0 21.736197 17.35259437 39.363014 38.75197337 39.363014 9.148736 0 17.557268-3.226102 24.188313-8.605257l24.219114 24.601636a4.2693441 4.2693441 0 0 0 6.09154 0c1.678129-1.704956 1.678129-4.483954 0-6.187916zm-54.498967-18.555799c-16.64617 0-30.1407551-13.707208-30.1407551-30.615678 0-16.908471 13.4945851-30.6156781 30.1407551-30.6156781 16.645176 0 30.139761 13.7072071 30.139761 30.6156781 0 16.90847-13.494585 30.615678-30.139761 30.615678z" fill="#fff" fill-rule="evenodd" stroke-width=".993564"/></svg>