<svg height="96" width="72" xmlns="http://www.w3.org/2000/svg"><path d="m64.738 95.999996h-57.476c-3.734 0-6.762-2.996-6.762-6.691v-43.491c0-3.695 3.028-6.691 6.762-6.691h6.762v-13.381c0-12.010004 9.839-21.7460036 21.976-21.7460036s21.976 9.7359996 21.976 21.7460036v13.381h6.762c3.734 0 6.762 2.996 6.762 6.691v43.491c0 3.695-3.028 6.691-6.762 6.691zm-35.873-19.041h5.79v-8.406l5.453 8.25v.119h5.79v-6.005h4.641v-5.721h-4.641v-1.468h8.602v-5.721h-8.602v-.007h-5.79v8.34l-5.453-8.25v-.053h-5.79zm-7.366.041h5.791v-18.922h-5.791zm33.096-51.254c0-10.163004-8.325-18.4010036-18.595-18.4010036s-18.595 8.2379996-18.595 18.4010036v13.381h37.19z" fill="#fff" fill-rule="evenodd"/></svg>