<svg height="46" width="60" xmlns="http://www.w3.org/2000/svg"><path d="m56.667 6.572h-53.334c-1.841 0-3.333-1.471-3.333-3.287 0-1.814 1.492-3.285 3.333-3.285h53.334c1.841 0 3.333 1.471 3.333 3.285 0 1.816-1.492 3.287-3.333 3.287zm-53.334 13.142h36.667c1.841 0 3.333 1.471 3.333 3.286 0 1.814-1.492 3.286-3.333 3.286h-36.667c-1.841 0-3.333-1.472-3.333-3.286 0-1.815 1.492-3.286 3.333-3.286zm0 19.714h53.334c1.841 0 3.333 1.472 3.333 3.287 0 1.814-1.492 3.285-3.333 3.285h-53.334c-1.841 0-3.333-1.471-3.333-3.285 0-1.815 1.492-3.287 3.333-3.287z" fill="#fff" fill-rule="evenodd"/></svg>