<svg height="34" width="12.998" xmlns="http://www.w3.org/2000/svg"><path d="m12.008 32.177a6.333 6.333 0 0 1 -.87-.352 1.86 1.86 0 0 1 -.85-.802c-.199-.358-.297-.793-.297-1.307v-17.438l-.297-.33-9.694.571v1.604c.396.043.834.147 1.316.307.481.161.841.33 1.078.505.317.235.581.545.791.934.211.388.317.838.317 1.35v12.784c0 .541-.086.977-.257 1.306-.171.33-.468.583-.891.758a3.208 3.208 0 0 1 -.85.22c-.33.043-.666.08-1.009.109v1.604h12.503v-1.604a5.35 5.35 0 0 1 -.99-.219zm-5.796-24.116c1.055 0 1.969-.392 2.74-1.175.772-.783 1.157-1.732 1.157-2.845s-.382-2.064-1.147-2.855-1.681-1.186-2.75-1.186c-1.068 0-1.988.395-2.76 1.186-.771.791-1.157 1.742-1.157 2.855s.386 2.062 1.157 2.845c.772.783 1.692 1.175 2.76 1.175z" fill="#fff" fill-rule="evenodd" opacity=".4"/></svg>