<svg height="25" width="50.000099" xmlns="http://www.w3.org/2000/svg"><path d="m46.428.00000017a3.571 3.571 0 0 0 -3.572 3.57100003c0 .336.061.655.148.963l-4.755 2.774a3.571 3.571 0 0 0 -5.519 4.4719998l-6.047 6.517a3.53 3.53 0 0 0 -1.684-.44c-.445 0-.866.092-1.259.24l-6.741-9.5499998a3.542 3.542 0 0 0 .857-2.297 3.5715 3.5715 0 0 0 -7.143 0c0 .606.165 1.168.431 1.667l-5.632 5.1629998a3.548 3.548 0 0 0 -1.942-.58 3.571 3.571 0 1 0 3.572 3.571c0-.605-.165-1.167-.431-1.667l5.632-5.1619998c.56.363 1.225.579 1.942.579.444 0 .866-.091 1.259-.239l6.741 9.5499998a3.54 3.54 0 0 0 -.857 2.297 3.571 3.571 0 0 0 7.142 0c0-.713-.214-1.374-.573-1.931l6.038-6.542a3.539 3.539 0 0 0 1.678.437 3.572 3.572 0 0 0 3.572-3.5719998c0-.335-.061-.654-.149-.963l4.756-2.774a3.571 3.571 0 1 0 2.536-6.08400003z" fill="#fff" fill-rule="evenodd"/></svg>